{
	"asset":{
		"generator":"Khronos glTF Blender I/O v3.5.30",
		"version":"2.0"
	},
	"scene":0,
	"scenes":[
		{
			"name":"Scene",
			"nodes":[
				0
			]
		}
	],
	"nodes":[
		{
			"mesh":0,
			"name":"Cube"
		}
	],
	"meshes":[
		{
			"name":"Cube",
			"primitives":[
				{
					"attributes":{
						"POSITION":0,
						"TEXCOORD_0":1,
						"NORMAL":2
					},
					"indices":3
				}
			]
		}
	],
	"accessors":[
		{
			"bufferView":0,
			"componentType":5126,
			"count":173,
			"max":[
				0.09525390714406967,
				0.09525390714406967,
				0.20087593793869019
			],
			"min":[
				-0.09525390714406967,
				-0.12810897827148438,
				-0.036640655249357224
			],
			"type":"VEC3"
		},
		{
			"bufferView":1,
			"componentType":5126,
			"count":173,
			"type":"VEC2"
		},
		{
			"bufferView":2,
			"componentType":5126,
			"count":173,
			"type":"VEC3"
		},
		{
			"bufferView":3,
			"componentType":5123,
			"count":618,
			"type":"SCALAR"
		}
	],
	"bufferViews":[
		{
			"buffer":0,
			"byteLength":2076,
			"byteOffset":0,
			"target":34962
		},
		{
			"buffer":0,
			"byteLength":1384,
			"byteOffset":2076,
			"target":34962
		},
		{
			"buffer":0,
			"byteLength":2076,
			"byteOffset":3460,
			"target":34962
		},
		{
			"buffer":0,
			"byteLength":1236,
			"byteOffset":5536,
			"target":34963
		}
	],
	"buffers":[
		{
			"byteLength":6772,
			"uri":"data:application/octet-stream;base64,"
		}
	]
}
