{
	"asset":{
		"generator":"Khronos glTF Blender I/O v3.5.30",
		"version":"2.0"
	},
	"scene":0,
	"scenes":[
		{
			"name":"Scene",
			"nodes":[
				0,
				1
			]
		}
	],
	"nodes":[
		{
			"mesh":0,
			"name":"Frame"
		},
		{
			"mesh":1,
			"name":"Saw_Blade",
			"translation":[
				0,
				0.8896054029464722,
				0
			]
		}
	],
	"meshes":[
		{
			"name":"Cube",
			"primitives":[
				{
					"attributes":{
						"POSITION":0,
						"TEXCOORD_0":1,
						"NORMAL":2
					},
					"indices":3
				}
			]
		},
		{
			"name":"Circle",
			"primitives":[
				{
					"attributes":{
						"POSITION":4,
						"TEXCOORD_0":5,
						"NORMAL":6
					},
					"indices":7
				}
			]
		}
	],
	"accessors":[
		{
			"bufferView":0,
			"componentType":5126,
			"count":237,
			"max":[
				1,
				1,
				0.5
			],
			"min":[
				-1,
				0,
				-0.5
			],
			"type":"VEC3"
		},
		{
			"bufferView":1,
			"componentType":5126,
			"count":237,
			"type":"VEC2"
		},
		{
			"bufferView":2,
			"componentType":5126,
			"count":237,
			"type":"VEC3"
		},
		{
			"bufferView":3,
			"componentType":5123,
			"count":1092,
			"type":"SCALAR"
		},
		{
			"bufferView":4,
			"componentType":5126,
			"count":96,
			"max":[
				0.5986269116401672,
				0.5986270308494568,
				0.015690121799707413
			],
			"min":[
				-0.5986269116401672,
				-0.5986269116401672,
				-0.015690136700868607
			],
			"type":"VEC3"
		},
		{
			"bufferView":5,
			"componentType":5126,
			"count":96,
			"type":"VEC2"
		},
		{
			"bufferView":6,
			"componentType":5126,
			"count":96,
			"type":"VEC3"
		},
		{
			"bufferView":7,
			"componentType":5123,
			"count":564,
			"type":"SCALAR"
		}
	],
	"bufferViews":[
		{
			"buffer":0,
			"byteLength":2844,
			"byteOffset":0,
			"target":34962
		},
		{
			"buffer":0,
			"byteLength":1896,
			"byteOffset":2844,
			"target":34962
		},
		{
			"buffer":0,
			"byteLength":2844,
			"byteOffset":4740,
			"target":34962
		},
		{
			"buffer":0,
			"byteLength":2184,
			"byteOffset":7584,
			"target":34963
		},
		{
			"buffer":0,
			"byteLength":1152,
			"byteOffset":9768,
			"target":34962
		},
		{
			"buffer":0,
			"byteLength":768,
			"byteOffset":10920,
			"target":34962
		},
		{
			"buffer":0,
			"byteLength":1152,
			"byteOffset":11688,
			"target":34962
		},
		{
			"buffer":0,
			"byteLength":1128,
			"byteOffset":12840,
			"target":34963
		}
	],
	"buffers":[
		{
			"byteLength":13968,
			"uri":"data:application/octet-stream;base64,"
		}
	]
}
