{
	"asset":{
		"generator":"Khronos glTF Blender I/O v3.5.30",
		"version":"2.0"
	},
	"scene":0,
	"scenes":[
		{
			"name":"Scene",
			"nodes":[
				0,
				1
			]
		}
	],
	"nodes":[
		{
			"mesh":0,
			"name":"Frame"
		},
		{
			"mesh":1,
			"name":"Saw_Blade",
			"translation":[
				0,
				0.8896054029464722,
				0
			]
		}
	],
	"meshes":[
		{
			"name":"Cube",
			"primitives":[
				{
					"attributes":{
						"POSITION":0,
						"TEXCOORD_0":1,
						"NORMAL":2
					},
					"indices":3
				},
				{
					"attributes":{
						"POSITION":4,
						"TEXCOORD_0":5,
						"NORMAL":6
					},
					"indices":7
				}
			]
		},
		{
			"name":"Circle",
			"primitives":[
				{
					"attributes":{
						"POSITION":8,
						"TEXCOORD_0":9,
						"NORMAL":10
					},
					"indices":11
				}
			]
		}
	],
	"accessors":[
		{
			"bufferView":0,
			"componentType":5126,
			"count":60,
			"max":[
				0.9752196669578552,
				1,
				0.4752196669578552
			],
			"min":[
				-0.9752197265625,
				0.9032151699066162,
				-0.4752196669578552
			],
			"type":"VEC3"
		},
		{
			"bufferView":1,
			"componentType":5126,
			"count":60,
			"type":"VEC2"
		},
		{
			"bufferView":2,
			"componentType":5126,
			"count":60,
			"type":"VEC3"
		},
		{
			"bufferView":3,
			"componentType":5123,
			"count":240,
			"type":"SCALAR"
		},
		{
			"bufferView":4,
			"componentType":5126,
			"count":208,
			"max":[
				1,
				1,
				0.5
			],
			"min":[
				-1,
				0,
				-0.5
			],
			"type":"VEC3"
		},
		{
			"bufferView":5,
			"componentType":5126,
			"count":208,
			"type":"VEC2"
		},
		{
			"bufferView":6,
			"componentType":5126,
			"count":208,
			"type":"VEC3"
		},
		{
			"bufferView":7,
			"componentType":5123,
			"count":852,
			"type":"SCALAR"
		},
		{
			"bufferView":8,
			"componentType":5126,
			"count":96,
			"max":[
				0.5986269116401672,
				0.5986270308494568,
				0.015690121799707413
			],
			"min":[
				-0.5986269116401672,
				-0.5986269116401672,
				-0.015690136700868607
			],
			"type":"VEC3"
		},
		{
			"bufferView":9,
			"componentType":5126,
			"count":96,
			"type":"VEC2"
		},
		{
			"bufferView":10,
			"componentType":5126,
			"count":96,
			"type":"VEC3"
		},
		{
			"bufferView":11,
			"componentType":5123,
			"count":564,
			"type":"SCALAR"
		}
	],
	"bufferViews":[
		{
			"buffer":0,
			"byteLength":720,
			"byteOffset":0,
			"target":34962
		},
		{
			"buffer":0,
			"byteLength":480,
			"byteOffset":720,
			"target":34962
		},
		{
			"buffer":0,
			"byteLength":720,
			"byteOffset":1200,
			"target":34962
		},
		{
			"buffer":0,
			"byteLength":480,
			"byteOffset":1920,
			"target":34963
		},
		{
			"buffer":0,
			"byteLength":2496,
			"byteOffset":2400,
			"target":34962
		},
		{
			"buffer":0,
			"byteLength":1664,
			"byteOffset":4896,
			"target":34962
		},
		{
			"buffer":0,
			"byteLength":2496,
			"byteOffset":6560,
			"target":34962
		},
		{
			"buffer":0,
			"byteLength":1704,
			"byteOffset":9056,
			"target":34963
		},
		{
			"buffer":0,
			"byteLength":1152,
			"byteOffset":10760,
			"target":34962
		},
		{
			"buffer":0,
			"byteLength":768,
			"byteOffset":11912,
			"target":34962
		},
		{
			"buffer":0,
			"byteLength":1152,
			"byteOffset":12680,
			"target":34962
		},
		{
			"buffer":0,
			"byteLength":1128,
			"byteOffset":13832,
			"target":34963
		}
	],
	"buffers":[
		{
			"byteLength":14960,
			"uri":"data:application/octet-stream;base64,"
		}
	]
}
