{
	"asset":{
		"generator":"Khronos glTF Blender I/O v3.5.30",
		"version":"2.0"
	},
	"scene":0,
	"scenes":[
		{
			"name":"Scene",
			"nodes":[
				4,
				5
			]
		}
	],
	"nodes":[
		{
			"name":"Root"
		},
		{
			"name":"Chest_Top",
			"rotation":[
				0.7071067690849304,
				-3.0626614488937776e-07,
				-3.0626614488937776e-07,
				0.7071067690849304
			],
			"translation":[
				0,
				1.1536027193069458,
				-1.2240186929702759
			]
		},
		{
			"name":"neutral_bone",
			"rotation":[
				-0.7071067690849304,
				0,
				0,
				0.7071067690849304
			]
		},
		{
			"mesh":0,
			"name":"Cube",
			"skin":0
		},
		{
			"children":[
				3,
				0,
				1,
				2
			],
			"name":"Armature"
		},
		{
			"mesh":1,
			"name":"Coins",
			"rotation":[
				5.921089177718386e-05,
				-0.003813251620158553,
				3.328054663143121e-05,
				0.9999927282333374
			],
			"translation":[
				-1.8465425968170166,
				3.779308557510376,
				-0.7471232414245605
			]
		}
	],
	"animations":[
		{
			"channels":[
				{
					"sampler":0,
					"target":{
						"node":0,
						"path":"translation"
					}
				},
				{
					"sampler":1,
					"target":{
						"node":0,
						"path":"rotation"
					}
				},
				{
					"sampler":2,
					"target":{
						"node":0,
						"path":"scale"
					}
				},
				{
					"sampler":3,
					"target":{
						"node":1,
						"path":"translation"
					}
				},
				{
					"sampler":4,
					"target":{
						"node":1,
						"path":"rotation"
					}
				},
				{
					"sampler":5,
					"target":{
						"node":1,
						"path":"scale"
					}
				}
			],
			"name":"Open",
			"samplers":[
				{
					"input":11,
					"interpolation":"LINEAR",
					"output":12
				},
				{
					"input":11,
					"interpolation":"LINEAR",
					"output":13
				},
				{
					"input":11,
					"interpolation":"LINEAR",
					"output":14
				},
				{
					"input":11,
					"interpolation":"LINEAR",
					"output":15
				},
				{
					"input":11,
					"interpolation":"LINEAR",
					"output":16
				},
				{
					"input":11,
					"interpolation":"LINEAR",
					"output":17
				}
			]
		},
		{
			"channels":[
				{
					"sampler":0,
					"target":{
						"node":5,
						"path":"translation"
					}
				},
				{
					"sampler":1,
					"target":{
						"node":5,
						"path":"rotation"
					}
				},
				{
					"sampler":2,
					"target":{
						"node":5,
						"path":"scale"
					}
				}
			],
			"name":"Coins",
			"samplers":[
				{
					"input":11,
					"interpolation":"LINEAR",
					"output":18
				},
				{
					"input":11,
					"interpolation":"LINEAR",
					"output":19
				},
				{
					"input":11,
					"interpolation":"LINEAR",
					"output":20
				}
			]
		}
	],
	"meshes":[
		{
			"name":"Cube",
			"primitives":[
				{
					"attributes":{
						"POSITION":0,
						"TEXCOORD_0":1,
						"NORMAL":2,
						"JOINTS_0":3,
						"WEIGHTS_0":4
					},
					"indices":5
				}
			]
		},
		{
			"name":"Cylinder",
			"primitives":[
				{
					"attributes":{
						"POSITION":7,
						"TEXCOORD_0":8,
						"NORMAL":9
					},
					"indices":10
				}
			]
		}
	],
	"skins":[
		{
			"inverseBindMatrices":6,
			"joints":[
				0,
				1,
				2
			],
			"name":"Armature"
		}
	],
	"accessors":[
		{
			"bufferView":0,
			"componentType":5126,
			"count":1490,
			"max":[
				1.976045846939087,
				2.0070765018463135,
				0.9979768991470337
			],
			"min":[
				-1.976045846939087,
				-0.00013406970538198948,
				-1.3601831197738647
			],
			"type":"VEC3"
		},
		{
			"bufferView":1,
			"componentType":5126,
			"count":1490,
			"type":"VEC2"
		},
		{
			"bufferView":2,
			"componentType":5126,
			"count":1490,
			"type":"VEC3"
		},
		{
			"bufferView":3,
			"componentType":5121,
			"count":1490,
			"type":"VEC4"
		},
		{
			"bufferView":4,
			"componentType":5126,
			"count":1490,
			"type":"VEC4"
		},
		{
			"bufferView":5,
			"componentType":5123,
			"count":7584,
			"type":"SCALAR"
		},
		{
			"bufferView":6,
			"componentType":5126,
			"count":3,
			"type":"MAT4"
		},
		{
			"bufferView":7,
			"componentType":5126,
			"count":11050,
			"max":[
				3.7166547775268555,
				-2.4890244007110596,
				1.6209608316421509
			],
			"min":[
				0.15302760899066925,
				-3.6397721767425537,
				-0.2934604287147522
			],
			"type":"VEC3"
		},
		{
			"bufferView":8,
			"componentType":5126,
			"count":11050,
			"type":"VEC2"
		},
		{
			"bufferView":9,
			"componentType":5126,
			"count":11050,
			"type":"VEC3"
		},
		{
			"bufferView":10,
			"componentType":5123,
			"count":30600,
			"type":"SCALAR"
		},
		{
			"bufferView":11,
			"componentType":5126,
			"count":61,
			"max":[
				2.5
			],
			"min":[
				0
			],
			"type":"SCALAR"
		},
		{
			"bufferView":12,
			"componentType":5126,
			"count":61,
			"type":"VEC3"
		},
		{
			"bufferView":13,
			"componentType":5126,
			"count":61,
			"type":"VEC4"
		},
		{
			"bufferView":14,
			"componentType":5126,
			"count":61,
			"type":"VEC3"
		},
		{
			"bufferView":15,
			"componentType":5126,
			"count":61,
			"type":"VEC3"
		},
		{
			"bufferView":16,
			"componentType":5126,
			"count":61,
			"type":"VEC4"
		},
		{
			"bufferView":17,
			"componentType":5126,
			"count":61,
			"type":"VEC3"
		},
		{
			"bufferView":18,
			"componentType":5126,
			"count":61,
			"type":"VEC3"
		},
		{
			"bufferView":19,
			"componentType":5126,
			"count":61,
			"type":"VEC4"
		},
		{
			"bufferView":20,
			"componentType":5126,
			"count":61,
			"type":"VEC3"
		}
	],
	"bufferViews":[
		{
			"buffer":0,
			"byteLength":17880,
			"byteOffset":0,
			"target":34962
		},
		{
			"buffer":0,
			"byteLength":11920,
			"byteOffset":17880,
			"target":34962
		},
		{
			"buffer":0,
			"byteLength":17880,
			"byteOffset":29800,
			"target":34962
		},
		{
			"buffer":0,
			"byteLength":5960,
			"byteOffset":47680,
			"target":34962
		},
		{
			"buffer":0,
			"byteLength":23840,
			"byteOffset":53640,
			"target":34962
		},
		{
			"buffer":0,
			"byteLength":15168,
			"byteOffset":77480,
			"target":34963
		},
		{
			"buffer":0,
			"byteLength":192,
			"byteOffset":92648
		},
		{
			"buffer":0,
			"byteLength":132600,
			"byteOffset":92840,
			"target":34962
		},
		{
			"buffer":0,
			"byteLength":88400,
			"byteOffset":225440,
			"target":34962
		},
		{
			"buffer":0,
			"byteLength":132600,
			"byteOffset":313840,
			"target":34962
		},
		{
			"buffer":0,
			"byteLength":61200,
			"byteOffset":446440,
			"target":34963
		},
		{
			"buffer":0,
			"byteLength":244,
			"byteOffset":507640
		},
		{
			"buffer":0,
			"byteLength":732,
			"byteOffset":507884
		},
		{
			"buffer":0,
			"byteLength":976,
			"byteOffset":508616
		},
		{
			"buffer":0,
			"byteLength":732,
			"byteOffset":509592
		},
		{
			"buffer":0,
			"byteLength":732,
			"byteOffset":510324
		},
		{
			"buffer":0,
			"byteLength":976,
			"byteOffset":511056
		},
		{
			"buffer":0,
			"byteLength":732,
			"byteOffset":512032
		},
		{
			"buffer":0,
			"byteLength":732,
			"byteOffset":512764
		},
		{
			"buffer":0,
			"byteLength":976,
			"byteOffset":513496
		},
		{
			"buffer":0,
			"byteLength":732,
			"byteOffset":514472
		}
	],
	"buffers":[
		{
			"byteLength":515204,
			"uri":"data:application/octet-stream;base64,"
		}
	]
}
