{
	"asset":{
		"generator":"Khronos glTF Blender I/O v3.5.30",
		"version":"2.0"
	},
	"scene":0,
	"scenes":[
		{
			"name":"Scene",
			"nodes":[
				0
			]
		}
	],
	"nodes":[
		{
			"mesh":0,
			"name":"Cube"
		}
	],
	"meshes":[
		{
			"name":"Cube",
			"primitives":[
				{
					"attributes":{
						"POSITION":0,
						"TEXCOORD_0":1,
						"NORMAL":2
					},
					"indices":3
				}
			]
		}
	],
	"accessors":[
		{
			"bufferView":0,
			"componentType":5126,
			"count":53,
			"max":[
				1.0171247720718384,
				0.02263621985912323,
				0.02263621985912323
			],
			"min":[
				-1.0171703100204468,
				-0.02263621985912323,
				-0.02263621985912323
			],
			"type":"VEC3"
		},
		{
			"bufferView":1,
			"componentType":5126,
			"count":53,
			"type":"VEC2"
		},
		{
			"bufferView":2,
			"componentType":5126,
			"count":53,
			"type":"VEC3"
		},
		{
			"bufferView":3,
			"componentType":5123,
			"count":228,
			"type":"SCALAR"
		}
	],
	"bufferViews":[
		{
			"buffer":0,
			"byteLength":636,
			"byteOffset":0,
			"target":34962
		},
		{
			"buffer":0,
			"byteLength":424,
			"byteOffset":636,
			"target":34962
		},
		{
			"buffer":0,
			"byteLength":636,
			"byteOffset":1060,
			"target":34962
		},
		{
			"buffer":0,
			"byteLength":456,
			"byteOffset":1696,
			"target":34963
		}
	],
	"buffers":[
		{
			"byteLength":2152,
			"uri":"data:application/octet-stream;base64,"
		}
	]
}
