{
	"asset":{
		"generator":"Khronos glTF Blender I/O v3.5.30",
		"version":"2.0"
	},
	"scene":0,
	"scenes":[
		{
			"name":"Scene",
			"nodes":[
				0,
				1,
				2,
				3
			]
		}
	],
	"nodes":[
		{
			"mesh":0,
			"name":"Door_Right_Wing"
		},
		{
			"mesh":1,
			"name":"Glass_Right_Wing"
		},
		{
			"mesh":2,
			"name":"Door_Left_Wing"
		},
		{
			"mesh":3,
			"name":"Glass_Left_Wiing"
		}
	],
	"meshes":[
		{
			"name":"Cube",
			"primitives":[
				{
					"attributes":{
						"POSITION":0,
						"TEXCOORD_0":1,
						"NORMAL":2
					},
					"indices":3
				}
			]
		},
		{
			"name":"Plane",
			"primitives":[
				{
					"attributes":{
						"POSITION":4,
						"TEXCOORD_0":5,
						"NORMAL":6
					},
					"indices":7
				}
			]
		},
		{
			"name":"Cube.001",
			"primitives":[
				{
					"attributes":{
						"POSITION":8,
						"TEXCOORD_0":9,
						"NORMAL":10
					},
					"indices":11
				}
			]
		},
		{
			"name":"Plane.001",
			"primitives":[
				{
					"attributes":{
						"POSITION":12,
						"TEXCOORD_0":13,
						"NORMAL":14
					},
					"indices":7
				}
			]
		}
	],
	"accessors":[
		{
			"bufferView":0,
			"componentType":5126,
			"count":439,
			"max":[
				2.5014140605926514,
				3.999999761581421,
				0.3176858425140381
			],
			"min":[
				-0.39912721514701843,
				1.1920928955078125e-07,
				-0.3205142021179199
			],
			"type":"VEC3"
		},
		{
			"bufferView":1,
			"componentType":5126,
			"count":439,
			"type":"VEC2"
		},
		{
			"bufferView":2,
			"componentType":5126,
			"count":439,
			"type":"VEC3"
		},
		{
			"bufferView":3,
			"componentType":5123,
			"count":1584,
			"type":"SCALAR"
		},
		{
			"bufferView":4,
			"componentType":5126,
			"count":16,
			"max":[
				2.3742945194244385,
				3.8745861053466797,
				0.024404585361480713
			],
			"min":[
				-0.2518264055252075,
				0.12620782852172852,
				-0.07559561729431152
			],
			"type":"VEC3"
		},
		{
			"bufferView":5,
			"componentType":5126,
			"count":16,
			"type":"VEC2"
		},
		{
			"bufferView":6,
			"componentType":5126,
			"count":16,
			"type":"VEC3"
		},
		{
			"bufferView":7,
			"componentType":5123,
			"count":36,
			"type":"SCALAR"
		},
		{
			"bufferView":8,
			"componentType":5126,
			"count":477,
			"max":[
				0.40195539593696594,
				3.999999761581421,
				0.3176858425140381
			],
			"min":[
				-2.4985859394073486,
				1.1920928955078125e-07,
				-0.3205140233039856
			],
			"type":"VEC3"
		},
		{
			"bufferView":9,
			"componentType":5126,
			"count":477,
			"type":"VEC2"
		},
		{
			"bufferView":10,
			"componentType":5126,
			"count":477,
			"type":"VEC3"
		},
		{
			"bufferView":11,
			"componentType":5123,
			"count":1584,
			"type":"SCALAR"
		},
		{
			"bufferView":12,
			"componentType":5126,
			"count":16,
			"max":[
				0.2518264055252075,
				3.8745861053466797,
				0.02440476417541504
			],
			"min":[
				-2.3742947578430176,
				0.12620782852172852,
				-0.07559573650360107
			],
			"type":"VEC3"
		},
		{
			"bufferView":13,
			"componentType":5126,
			"count":16,
			"type":"VEC2"
		},
		{
			"bufferView":14,
			"componentType":5126,
			"count":16,
			"type":"VEC3"
		}
	],
	"bufferViews":[
		{
			"buffer":0,
			"byteLength":5268,
			"byteOffset":0,
			"target":34962
		},
		{
			"buffer":0,
			"byteLength":3512,
			"byteOffset":5268,
			"target":34962
		},
		{
			"buffer":0,
			"byteLength":5268,
			"byteOffset":8780,
			"target":34962
		},
		{
			"buffer":0,
			"byteLength":3168,
			"byteOffset":14048,
			"target":34963
		},
		{
			"buffer":0,
			"byteLength":192,
			"byteOffset":17216,
			"target":34962
		},
		{
			"buffer":0,
			"byteLength":128,
			"byteOffset":17408,
			"target":34962
		},
		{
			"buffer":0,
			"byteLength":192,
			"byteOffset":17536,
			"target":34962
		},
		{
			"buffer":0,
			"byteLength":72,
			"byteOffset":17728,
			"target":34963
		},
		{
			"buffer":0,
			"byteLength":5724,
			"byteOffset":17800,
			"target":34962
		},
		{
			"buffer":0,
			"byteLength":3816,
			"byteOffset":23524,
			"target":34962
		},
		{
			"buffer":0,
			"byteLength":5724,
			"byteOffset":27340,
			"target":34962
		},
		{
			"buffer":0,
			"byteLength":3168,
			"byteOffset":33064,
			"target":34963
		},
		{
			"buffer":0,
			"byteLength":192,
			"byteOffset":36232,
			"target":34962
		},
		{
			"buffer":0,
			"byteLength":128,
			"byteOffset":36424,
			"target":34962
		},
		{
			"buffer":0,
			"byteLength":192,
			"byteOffset":36552,
			"target":34962
		}
	],
	"buffers":[
		{
			"byteLength":36744,
			"uri":"data:application/octet-stream;base64,"
		}
	]
}
