{
	"asset":{
		"generator":"Khronos glTF Blender I/O v3.5.30",
		"version":"2.0"
	},
	"scene":0,
	"scenes":[
		{
			"name":"Scene",
			"nodes":[
				0,
				1,
				2
			]
		}
	],
	"nodes":[
		{
			"mesh":0,
			"name":"Socket"
		},
		{
			"mesh":1,
			"name":"Plug"
		},
		{
			"mesh":2,
			"name":"Button"
		}
	],
	"meshes":[
		{
			"name":"Cube",
			"primitives":[
				{
					"attributes":{
						"POSITION":0,
						"TEXCOORD_0":1,
						"NORMAL":2
					},
					"indices":3
				}
			]
		},
		{
			"name":"Cube.001",
			"primitives":[
				{
					"attributes":{
						"POSITION":4,
						"TEXCOORD_0":5,
						"NORMAL":6
					},
					"indices":7
				}
			]
		},
		{
			"name":"Circle",
			"primitives":[
				{
					"attributes":{
						"POSITION":8,
						"TEXCOORD_0":9,
						"NORMAL":10
					},
					"indices":11
				}
			]
		}
	],
	"accessors":[
		{
			"bufferView":0,
			"componentType":5126,
			"count":363,
			"max":[
				0.4999999701976776,
				0.3147038519382477,
				0.5
			],
			"min":[
				-0.4999999701976776,
				7.450580596923828e-09,
				-0.5
			],
			"type":"VEC3"
		},
		{
			"bufferView":1,
			"componentType":5126,
			"count":363,
			"type":"VEC2"
		},
		{
			"bufferView":2,
			"componentType":5126,
			"count":363,
			"type":"VEC3"
		},
		{
			"bufferView":3,
			"componentType":5123,
			"count":1716,
			"type":"SCALAR"
		},
		{
			"bufferView":4,
			"componentType":5126,
			"count":56,
			"max":[
				0.17499999701976776,
				0.4954265058040619,
				0.17500001192092896
			],
			"min":[
				-0.17499999701976776,
				0.1994381844997406,
				-0.17500001192092896
			],
			"type":"VEC3"
		},
		{
			"bufferView":5,
			"componentType":5126,
			"count":56,
			"type":"VEC2"
		},
		{
			"bufferView":6,
			"componentType":5126,
			"count":56,
			"type":"VEC3"
		},
		{
			"bufferView":7,
			"componentType":5123,
			"count":144,
			"type":"SCALAR"
		},
		{
			"bufferView":8,
			"componentType":5126,
			"count":160,
			"max":[
				0.34383735060691833,
				0.45764002203941345,
				0.3438374102115631
			],
			"min":[
				-0.34383735060691833,
				0.27090173959732056,
				-0.3438374400138855
			],
			"type":"VEC3"
		},
		{
			"bufferView":9,
			"componentType":5126,
			"count":160,
			"type":"VEC2"
		},
		{
			"bufferView":10,
			"componentType":5126,
			"count":160,
			"type":"VEC3"
		},
		{
			"bufferView":11,
			"componentType":5123,
			"count":858,
			"type":"SCALAR"
		}
	],
	"bufferViews":[
		{
			"buffer":0,
			"byteLength":4356,
			"byteOffset":0,
			"target":34962
		},
		{
			"buffer":0,
			"byteLength":2904,
			"byteOffset":4356,
			"target":34962
		},
		{
			"buffer":0,
			"byteLength":4356,
			"byteOffset":7260,
			"target":34962
		},
		{
			"buffer":0,
			"byteLength":3432,
			"byteOffset":11616,
			"target":34963
		},
		{
			"buffer":0,
			"byteLength":672,
			"byteOffset":15048,
			"target":34962
		},
		{
			"buffer":0,
			"byteLength":448,
			"byteOffset":15720,
			"target":34962
		},
		{
			"buffer":0,
			"byteLength":672,
			"byteOffset":16168,
			"target":34962
		},
		{
			"buffer":0,
			"byteLength":288,
			"byteOffset":16840,
			"target":34963
		},
		{
			"buffer":0,
			"byteLength":1920,
			"byteOffset":17128,
			"target":34962
		},
		{
			"buffer":0,
			"byteLength":1280,
			"byteOffset":19048,
			"target":34962
		},
		{
			"buffer":0,
			"byteLength":1920,
			"byteOffset":20328,
			"target":34962
		},
		{
			"buffer":0,
			"byteLength":1716,
			"byteOffset":22248,
			"target":34963
		}
	],
	"buffers":[
		{
			"byteLength":23964,
			"uri":"data:application/octet-stream;base64,"
		}
	]
}
