{
	"asset":{
		"generator":"Khronos glTF Blender I/O v3.5.30",
		"version":"2.0"
	},
	"scene":0,
	"scenes":[
		{
			"name":"Scene",
			"nodes":[
				0,
				1,
				2
			]
		}
	],
	"nodes":[
		{
			"mesh":0,
			"name":"Socket"
		},
		{
			"mesh":1,
			"name":"Plug"
		},
		{
			"mesh":2,
			"name":"Button"
		}
	],
	"meshes":[
		{
			"name":"Cube",
			"primitives":[
				{
					"attributes":{
						"POSITION":0,
						"TEXCOORD_0":1,
						"NORMAL":2
					},
					"indices":3
				}
			]
		},
		{
			"name":"Mesh",
			"primitives":[
				{
					"attributes":{
						"POSITION":4,
						"TEXCOORD_0":5,
						"NORMAL":6
					},
					"indices":7
				}
			]
		},
		{
			"name":"Mesh",
			"primitives":[
				{
					"attributes":{
						"POSITION":8,
						"TEXCOORD_0":9,
						"NORMAL":10
					},
					"indices":11
				}
			]
		}
	],
	"accessors":[
		{
			"bufferView":0,
			"componentType":5126,
			"count":363,
			"max":[
				0.4999999701976776,
				0.3147038519382477,
				0.5
			],
			"min":[
				-0.4999999701976776,
				7.450580596923828e-09,
				-0.5
			],
			"type":"VEC3"
		},
		{
			"bufferView":1,
			"componentType":5126,
			"count":363,
			"type":"VEC2"
		},
		{
			"bufferView":2,
			"componentType":5126,
			"count":363,
			"type":"VEC3"
		},
		{
			"bufferView":3,
			"componentType":5123,
			"count":1716,
			"type":"SCALAR"
		},
		{
			"bufferView":4,
			"componentType":5126,
			"count":504,
			"max":[
				0.17500002682209015,
				0.49542656540870667,
				0.17500004172325134
			],
			"min":[
				-0.17500002682209015,
				0.1994381844997406,
				-0.17500004172325134
			],
			"type":"VEC3"
		},
		{
			"bufferView":5,
			"componentType":5126,
			"count":504,
			"type":"VEC2"
		},
		{
			"bufferView":6,
			"componentType":5126,
			"count":504,
			"type":"VEC3"
		},
		{
			"bufferView":7,
			"componentType":5123,
			"count":2304,
			"type":"SCALAR"
		},
		{
			"bufferView":8,
			"componentType":5126,
			"count":694,
			"max":[
				0.341635137796402,
				0.4575473964214325,
				0.34163519740104675
			],
			"min":[
				-0.341635137796402,
				0.27090176939964294,
				-0.34163519740104675
			],
			"type":"VEC3"
		},
		{
			"bufferView":9,
			"componentType":5126,
			"count":694,
			"type":"VEC2"
		},
		{
			"bufferView":10,
			"componentType":5126,
			"count":694,
			"type":"VEC3"
		},
		{
			"bufferView":11,
			"componentType":5123,
			"count":3264,
			"type":"SCALAR"
		}
	],
	"bufferViews":[
		{
			"buffer":0,
			"byteLength":4356,
			"byteOffset":0,
			"target":34962
		},
		{
			"buffer":0,
			"byteLength":2904,
			"byteOffset":4356,
			"target":34962
		},
		{
			"buffer":0,
			"byteLength":4356,
			"byteOffset":7260,
			"target":34962
		},
		{
			"buffer":0,
			"byteLength":3432,
			"byteOffset":11616,
			"target":34963
		},
		{
			"buffer":0,
			"byteLength":6048,
			"byteOffset":15048,
			"target":34962
		},
		{
			"buffer":0,
			"byteLength":4032,
			"byteOffset":21096,
			"target":34962
		},
		{
			"buffer":0,
			"byteLength":6048,
			"byteOffset":25128,
			"target":34962
		},
		{
			"buffer":0,
			"byteLength":4608,
			"byteOffset":31176,
			"target":34963
		},
		{
			"buffer":0,
			"byteLength":8328,
			"byteOffset":35784,
			"target":34962
		},
		{
			"buffer":0,
			"byteLength":5552,
			"byteOffset":44112,
			"target":34962
		},
		{
			"buffer":0,
			"byteLength":8328,
			"byteOffset":49664,
			"target":34962
		},
		{
			"buffer":0,
			"byteLength":6528,
			"byteOffset":57992,
			"target":34963
		}
	],
	"buffers":[
		{
			"byteLength":64520,
			"uri":"data:application/octet-stream;base64,"
		}
	]
}
