{
	"asset":{
		"generator":"Khronos glTF Blender I/O v3.5.30",
		"version":"2.0"
	},
	"scene":0,
	"scenes":[
		{
			"name":"Scene",
			"nodes":[
				0,
				1
			]
		}
	],
	"nodes":[
		{
			"mesh":0,
			"name":"Frame"
		},
		{
			"mesh":1,
			"name":"Blade",
			"translation":[
				0,
				3.4781932830810547,
				0
			]
		}
	],
	"meshes":[
		{
			"name":"Cube",
			"primitives":[
				{
					"attributes":{
						"POSITION":0,
						"TEXCOORD_0":1,
						"NORMAL":2
					},
					"indices":3
				}
			]
		},
		{
			"name":"Cube.001",
			"primitives":[
				{
					"attributes":{
						"POSITION":4,
						"TEXCOORD_0":5,
						"NORMAL":6
					},
					"indices":7
				}
			]
		}
	],
	"accessors":[
		{
			"bufferView":0,
			"componentType":5126,
			"count":115,
			"max":[
				1,
				3.861909866333008,
				0.21718883514404297
			],
			"min":[
				-1,
				0,
				-0.21718883514404297
			],
			"type":"VEC3"
		},
		{
			"bufferView":1,
			"componentType":5126,
			"count":115,
			"type":"VEC2"
		},
		{
			"bufferView":2,
			"componentType":5126,
			"count":115,
			"type":"VEC3"
		},
		{
			"bufferView":3,
			"componentType":5123,
			"count":552,
			"type":"SCALAR"
		},
		{
			"bufferView":4,
			"componentType":5126,
			"count":20,
			"max":[
				0.8327679634094238,
				0.34474921226501465,
				0.05065882205963135
			],
			"min":[
				-0.8327679634094238,
				-0.8419837951660156,
				-0.05065882205963135
			],
			"type":"VEC3"
		},
		{
			"bufferView":5,
			"componentType":5126,
			"count":20,
			"type":"VEC2"
		},
		{
			"bufferView":6,
			"componentType":5126,
			"count":20,
			"type":"VEC3"
		},
		{
			"bufferView":7,
			"componentType":5123,
			"count":60,
			"type":"SCALAR"
		}
	],
	"bufferViews":[
		{
			"buffer":0,
			"byteLength":1380,
			"byteOffset":0,
			"target":34962
		},
		{
			"buffer":0,
			"byteLength":920,
			"byteOffset":1380,
			"target":34962
		},
		{
			"buffer":0,
			"byteLength":1380,
			"byteOffset":2300,
			"target":34962
		},
		{
			"buffer":0,
			"byteLength":1104,
			"byteOffset":3680,
			"target":34963
		},
		{
			"buffer":0,
			"byteLength":240,
			"byteOffset":4784,
			"target":34962
		},
		{
			"buffer":0,
			"byteLength":160,
			"byteOffset":5024,
			"target":34962
		},
		{
			"buffer":0,
			"byteLength":240,
			"byteOffset":5184,
			"target":34962
		},
		{
			"buffer":0,
			"byteLength":120,
			"byteOffset":5424,
			"target":34963
		}
	],
	"buffers":[
		{
			"byteLength":5544,
			"uri":"data:application/octet-stream;base64,"
		}
	]
}
