{
	"asset":{
		"generator":"Khronos glTF Blender I/O v3.5.30",
		"version":"2.0"
	},
	"scene":0,
	"scenes":[
		{
			"name":"Scene",
			"nodes":[
				11,
				18
			]
		}
	],
	"nodes":[
		{
			"name":"Neck_Start",
			"rotation":[
				2.117582368135751e-22,
				0,
				0,
				1
			],
			"scale":[
				1,
				0.9999999403953552,
				1
			],
			"translation":[
				0,
				2.371476650238037,
				0
			]
		},
		{
			"children":[
				0
			],
			"name":"Neck_01",
			"rotation":[
				2.117582368135751e-22,
				0,
				0,
				1
			],
			"translation":[
				0,
				1.7247099876403809,
				0
			]
		},
		{
			"children":[
				1
			],
			"name":"Neck_02",
			"rotation":[
				0,
				0,
				3.944304526105059e-31,
				1
			],
			"translation":[
				0,
				1.7835068702697754,
				0
			]
		},
		{
			"children":[
				2
			],
			"name":"Neck_03",
			"rotation":[
				0,
				0,
				3.944304526105059e-31,
				1
			],
			"translation":[
				0,
				1.6463141441345215,
				0
			]
		},
		{
			"children":[
				3
			],
			"name":"Neck_04",
			"rotation":[
				0,
				0,
				3.944304526105059e-31,
				1
			],
			"translation":[
				0,
				1.7835073471069336,
				0
			]
		},
		{
			"children":[
				4
			],
			"name":"Neck_05",
			"rotation":[
				0,
				0,
				3.944304526105059e-31,
				1
			],
			"translation":[
				0,
				1.7639074325561523,
				0
			]
		},
		{
			"children":[
				5
			],
			"name":"Neck_06",
			"rotation":[
				-3.552713678800501e-15,
				7.006492321624085e-45,
				-4.242569760705303e-31,
				1
			],
			"translation":[
				-2.041177592259368e-29,
				1.7051095962524414,
				2.432000998156547e-16
			]
		},
		{
			"children":[
				6
			],
			"name":"Neck_07",
			"rotation":[
				4.3711374075883214e-08,
				-3.944304526105059e-31,
				-2.220445255156925e-16,
				1
			],
			"scale":[
				1,
				0.9999999403953552,
				1
			],
			"translation":[
				2.3665827156630354e-30,
				2.803743362426758,
				-1.1368683772161603e-13
			]
		},
		{
			"children":[
				7
			],
			"name":"Head",
			"rotation":[
				-0.7071067690849304,
				1.5700919024171951e-16,
				1.5700919024171951e-16,
				0.7071067690849304
			],
			"translation":[
				8.446006921462596e-16,
				1.2255551951056987e-07,
				16.543079376220703
			]
		},
		{
			"mesh":0,
			"name":"Eyes",
			"skin":0
		},
		{
			"mesh":1,
			"name":"Head",
			"skin":0
		},
		{
			"children":[
				9,
				10,
				8
			],
			"name":"Head_Armature"
		},
		{
			"name":"Root",
			"rotation":[
				0.7071067690849304,
				-5.338507591545749e-08,
				-5.338507591545749e-08,
				0.7071067690849304
			]
		},
		{
			"name":"Bone.004",
			"rotation":[
				-0.0008556320681236684,
				-1.4197009114646185e-14,
				6.119941220461556e-10,
				0.9999996423721313
			],
			"scale":[
				1,
				0.9999999403953552,
				0.9999999403953552
			],
			"translation":[
				-4.292346236474745e-15,
				2.5523874759674072,
				-3.725290298461914e-09
			]
		},
		{
			"children":[
				13
			],
			"name":"Bone.003",
			"rotation":[
				0.04160833731293678,
				-1.4389849717615782e-14,
				-2.9760590436467282e-08,
				0.9991340041160583
			],
			"scale":[
				1,
				0.9999998807907104,
				0.9999999403953552
			],
			"translation":[
				8.328268494761301e-15,
				2.0458438396453857,
				-7.450580596923828e-09
			]
		},
		{
			"children":[
				14
			],
			"name":"Bone.002",
			"rotation":[
				0.15303835272789001,
				-8.718026300869042e-14,
				-1.0946156692170916e-07,
				0.9882202744483948
			],
			"scale":[
				1,
				0.9999998807907104,
				0.9999999403953552
			],
			"translation":[
				-1.541585056222955e-14,
				2.4976346492767334,
				-6.51925802230835e-08
			]
		},
		{
			"children":[
				15
			],
			"name":"Bone.001",
			"rotation":[
				-0.8256776928901672,
				-2.0175288284463022e-07,
				2.9528530376410345e-07,
				0.564142107963562
			],
			"scale":[
				1,
				0.9999999403953552,
				1
			],
			"translation":[
				5.041303991623548e-16,
				0.9371033310890198,
				0.9935645461082458
			]
		},
		{
			"mesh":2,
			"name":"Body",
			"skin":1
		},
		{
			"children":[
				17,
				12,
				16
			],
			"name":"Body_Armature"
		}
	],
	"animations":[
		{
			"channels":[
				{
					"sampler":0,
					"target":{
						"node":12,
						"path":"translation"
					}
				},
				{
					"sampler":1,
					"target":{
						"node":12,
						"path":"rotation"
					}
				},
				{
					"sampler":2,
					"target":{
						"node":12,
						"path":"scale"
					}
				},
				{
					"sampler":3,
					"target":{
						"node":16,
						"path":"translation"
					}
				},
				{
					"sampler":4,
					"target":{
						"node":16,
						"path":"rotation"
					}
				},
				{
					"sampler":5,
					"target":{
						"node":16,
						"path":"scale"
					}
				},
				{
					"sampler":6,
					"target":{
						"node":15,
						"path":"translation"
					}
				},
				{
					"sampler":7,
					"target":{
						"node":15,
						"path":"rotation"
					}
				},
				{
					"sampler":8,
					"target":{
						"node":15,
						"path":"scale"
					}
				},
				{
					"sampler":9,
					"target":{
						"node":14,
						"path":"translation"
					}
				},
				{
					"sampler":10,
					"target":{
						"node":14,
						"path":"rotation"
					}
				},
				{
					"sampler":11,
					"target":{
						"node":14,
						"path":"scale"
					}
				},
				{
					"sampler":12,
					"target":{
						"node":13,
						"path":"translation"
					}
				},
				{
					"sampler":13,
					"target":{
						"node":13,
						"path":"rotation"
					}
				},
				{
					"sampler":14,
					"target":{
						"node":13,
						"path":"scale"
					}
				}
			],
			"name":"Hydra_Idle",
			"samplers":[
				{
					"input":22,
					"interpolation":"LINEAR",
					"output":23
				},
				{
					"input":22,
					"interpolation":"LINEAR",
					"output":24
				},
				{
					"input":22,
					"interpolation":"LINEAR",
					"output":25
				},
				{
					"input":22,
					"interpolation":"LINEAR",
					"output":26
				},
				{
					"input":22,
					"interpolation":"LINEAR",
					"output":27
				},
				{
					"input":22,
					"interpolation":"LINEAR",
					"output":28
				},
				{
					"input":22,
					"interpolation":"LINEAR",
					"output":29
				},
				{
					"input":22,
					"interpolation":"LINEAR",
					"output":30
				},
				{
					"input":22,
					"interpolation":"LINEAR",
					"output":31
				},
				{
					"input":22,
					"interpolation":"LINEAR",
					"output":32
				},
				{
					"input":22,
					"interpolation":"LINEAR",
					"output":33
				},
				{
					"input":22,
					"interpolation":"LINEAR",
					"output":34
				},
				{
					"input":22,
					"interpolation":"LINEAR",
					"output":35
				},
				{
					"input":22,
					"interpolation":"LINEAR",
					"output":36
				},
				{
					"input":22,
					"interpolation":"LINEAR",
					"output":37
				}
			]
		},
		{
			"channels":[
				{
					"sampler":0,
					"target":{
						"node":12,
						"path":"translation"
					}
				},
				{
					"sampler":1,
					"target":{
						"node":12,
						"path":"rotation"
					}
				},
				{
					"sampler":2,
					"target":{
						"node":12,
						"path":"scale"
					}
				},
				{
					"sampler":3,
					"target":{
						"node":16,
						"path":"translation"
					}
				},
				{
					"sampler":4,
					"target":{
						"node":16,
						"path":"rotation"
					}
				},
				{
					"sampler":5,
					"target":{
						"node":16,
						"path":"scale"
					}
				},
				{
					"sampler":6,
					"target":{
						"node":15,
						"path":"translation"
					}
				},
				{
					"sampler":7,
					"target":{
						"node":15,
						"path":"rotation"
					}
				},
				{
					"sampler":8,
					"target":{
						"node":15,
						"path":"scale"
					}
				},
				{
					"sampler":9,
					"target":{
						"node":14,
						"path":"translation"
					}
				},
				{
					"sampler":10,
					"target":{
						"node":14,
						"path":"rotation"
					}
				},
				{
					"sampler":11,
					"target":{
						"node":14,
						"path":"scale"
					}
				},
				{
					"sampler":12,
					"target":{
						"node":13,
						"path":"translation"
					}
				},
				{
					"sampler":13,
					"target":{
						"node":13,
						"path":"rotation"
					}
				},
				{
					"sampler":14,
					"target":{
						"node":13,
						"path":"scale"
					}
				}
			],
			"name":"Hydra_Move",
			"samplers":[
				{
					"input":22,
					"interpolation":"LINEAR",
					"output":38
				},
				{
					"input":22,
					"interpolation":"LINEAR",
					"output":39
				},
				{
					"input":22,
					"interpolation":"LINEAR",
					"output":40
				},
				{
					"input":22,
					"interpolation":"LINEAR",
					"output":41
				},
				{
					"input":22,
					"interpolation":"LINEAR",
					"output":42
				},
				{
					"input":22,
					"interpolation":"LINEAR",
					"output":43
				},
				{
					"input":22,
					"interpolation":"LINEAR",
					"output":44
				},
				{
					"input":22,
					"interpolation":"LINEAR",
					"output":45
				},
				{
					"input":22,
					"interpolation":"LINEAR",
					"output":46
				},
				{
					"input":22,
					"interpolation":"LINEAR",
					"output":47
				},
				{
					"input":22,
					"interpolation":"LINEAR",
					"output":48
				},
				{
					"input":22,
					"interpolation":"LINEAR",
					"output":49
				},
				{
					"input":22,
					"interpolation":"LINEAR",
					"output":50
				},
				{
					"input":22,
					"interpolation":"LINEAR",
					"output":51
				},
				{
					"input":22,
					"interpolation":"LINEAR",
					"output":52
				}
			]
		}
	],
	"meshes":[
		{
			"name":"Cylinder.001",
			"primitives":[
				{
					"attributes":{
						"COLOR_0":0,
						"POSITION":1,
						"TEXCOORD_0":2,
						"NORMAL":3,
						"JOINTS_0":4,
						"WEIGHTS_0":5
					},
					"indices":6
				}
			]
		},
		{
			"name":"Cylinder",
			"primitives":[
				{
					"attributes":{
						"COLOR_0":8,
						"POSITION":9,
						"TEXCOORD_0":10,
						"NORMAL":11,
						"JOINTS_0":12,
						"WEIGHTS_0":13
					},
					"indices":14
				}
			]
		},
		{
			"name":"Cube",
			"primitives":[
				{
					"attributes":{
						"POSITION":15,
						"TEXCOORD_0":16,
						"NORMAL":17,
						"JOINTS_0":18,
						"WEIGHTS_0":19
					},
					"indices":20
				}
			]
		}
	],
	"skins":[
		{
			"inverseBindMatrices":7,
			"joints":[
				8,
				7,
				6,
				5,
				4,
				3,
				2,
				1,
				0
			],
			"name":"Head_Armature"
		},
		{
			"inverseBindMatrices":21,
			"joints":[
				12,
				16,
				15,
				14,
				13
			],
			"name":"Body_Armature"
		}
	],
	"accessors":[
		{
			"bufferView":0,
			"componentType":5123,
			"count":302,
			"normalized":true,
			"type":"VEC4"
		},
		{
			"bufferView":1,
			"componentType":5126,
			"count":302,
			"max":[
				0.8760730028152466,
				0.9782857298851013,
				15.160953521728516
			],
			"min":[
				-0.8760730028152466,
				0.24299120903015137,
				14.421920776367188
			],
			"type":"VEC3"
		},
		{
			"bufferView":2,
			"componentType":5126,
			"count":302,
			"type":"VEC2"
		},
		{
			"bufferView":3,
			"componentType":5126,
			"count":302,
			"type":"VEC3"
		},
		{
			"bufferView":4,
			"componentType":5121,
			"count":302,
			"type":"VEC4"
		},
		{
			"bufferView":5,
			"componentType":5126,
			"count":302,
			"type":"VEC4"
		},
		{
			"bufferView":6,
			"componentType":5123,
			"count":1344,
			"type":"SCALAR"
		},
		{
			"bufferView":7,
			"componentType":5126,
			"count":9,
			"type":"MAT4"
		},
		{
			"bufferView":8,
			"componentType":5123,
			"count":892,
			"normalized":true,
			"type":"VEC4"
		},
		{
			"bufferView":9,
			"componentType":5126,
			"count":892,
			"max":[
				1.2370214462280273,
				1.198525071144104,
				16.9943904876709
			],
			"min":[
				-1.237021565437317,
				-0.9466846585273743,
				0.9902154207229614
			],
			"type":"VEC3"
		},
		{
			"bufferView":10,
			"componentType":5126,
			"count":892,
			"type":"VEC2"
		},
		{
			"bufferView":11,
			"componentType":5126,
			"count":892,
			"type":"VEC3"
		},
		{
			"bufferView":12,
			"componentType":5121,
			"count":892,
			"type":"VEC4"
		},
		{
			"bufferView":13,
			"componentType":5126,
			"count":892,
			"type":"VEC4"
		},
		{
			"bufferView":14,
			"componentType":5123,
			"count":4932,
			"type":"SCALAR"
		},
		{
			"bufferView":15,
			"componentType":5126,
			"count":1159,
			"max":[
				1.6152180433273315,
				1.6580348014831543,
				1.676031470298767
			],
			"min":[
				-1.615218162536621,
				-0.9190096855163574,
				-8.37932300567627
			],
			"type":"VEC3"
		},
		{
			"bufferView":16,
			"componentType":5126,
			"count":1159,
			"type":"VEC2"
		},
		{
			"bufferView":17,
			"componentType":5126,
			"count":1159,
			"type":"VEC3"
		},
		{
			"bufferView":18,
			"componentType":5121,
			"count":1159,
			"type":"VEC4"
		},
		{
			"bufferView":19,
			"componentType":5126,
			"count":1159,
			"type":"VEC4"
		},
		{
			"bufferView":20,
			"componentType":5123,
			"count":5352,
			"type":"SCALAR"
		},
		{
			"bufferView":21,
			"componentType":5126,
			"count":5,
			"type":"MAT4"
		},
		{
			"bufferView":22,
			"componentType":5126,
			"count":60,
			"max":[
				2.5
			],
			"min":[
				0.041666666666666664
			],
			"type":"SCALAR"
		},
		{
			"bufferView":23,
			"componentType":5126,
			"count":60,
			"type":"VEC3"
		},
		{
			"bufferView":24,
			"componentType":5126,
			"count":60,
			"type":"VEC4"
		},
		{
			"bufferView":25,
			"componentType":5126,
			"count":60,
			"type":"VEC3"
		},
		{
			"bufferView":26,
			"componentType":5126,
			"count":60,
			"type":"VEC3"
		},
		{
			"bufferView":27,
			"componentType":5126,
			"count":60,
			"type":"VEC4"
		},
		{
			"bufferView":28,
			"componentType":5126,
			"count":60,
			"type":"VEC3"
		},
		{
			"bufferView":29,
			"componentType":5126,
			"count":60,
			"type":"VEC3"
		},
		{
			"bufferView":30,
			"componentType":5126,
			"count":60,
			"type":"VEC4"
		},
		{
			"bufferView":31,
			"componentType":5126,
			"count":60,
			"type":"VEC3"
		},
		{
			"bufferView":32,
			"componentType":5126,
			"count":60,
			"type":"VEC3"
		},
		{
			"bufferView":33,
			"componentType":5126,
			"count":60,
			"type":"VEC4"
		},
		{
			"bufferView":34,
			"componentType":5126,
			"count":60,
			"type":"VEC3"
		},
		{
			"bufferView":35,
			"componentType":5126,
			"count":60,
			"type":"VEC3"
		},
		{
			"bufferView":36,
			"componentType":5126,
			"count":60,
			"type":"VEC4"
		},
		{
			"bufferView":37,
			"componentType":5126,
			"count":60,
			"type":"VEC3"
		},
		{
			"bufferView":38,
			"componentType":5126,
			"count":60,
			"type":"VEC3"
		},
		{
			"bufferView":39,
			"componentType":5126,
			"count":60,
			"type":"VEC4"
		},
		{
			"bufferView":40,
			"componentType":5126,
			"count":60,
			"type":"VEC3"
		},
		{
			"bufferView":41,
			"componentType":5126,
			"count":60,
			"type":"VEC3"
		},
		{
			"bufferView":42,
			"componentType":5126,
			"count":60,
			"type":"VEC4"
		},
		{
			"bufferView":43,
			"componentType":5126,
			"count":60,
			"type":"VEC3"
		},
		{
			"bufferView":44,
			"componentType":5126,
			"count":60,
			"type":"VEC3"
		},
		{
			"bufferView":45,
			"componentType":5126,
			"count":60,
			"type":"VEC4"
		},
		{
			"bufferView":46,
			"componentType":5126,
			"count":60,
			"type":"VEC3"
		},
		{
			"bufferView":47,
			"componentType":5126,
			"count":60,
			"type":"VEC3"
		},
		{
			"bufferView":48,
			"componentType":5126,
			"count":60,
			"type":"VEC4"
		},
		{
			"bufferView":49,
			"componentType":5126,
			"count":60,
			"type":"VEC3"
		},
		{
			"bufferView":50,
			"componentType":5126,
			"count":60,
			"type":"VEC3"
		},
		{
			"bufferView":51,
			"componentType":5126,
			"count":60,
			"type":"VEC4"
		},
		{
			"bufferView":52,
			"componentType":5126,
			"count":60,
			"type":"VEC3"
		}
	],
	"bufferViews":[
		{
			"buffer":0,
			"byteLength":2416,
			"byteOffset":0,
			"target":34962
		},
		{
			"buffer":0,
			"byteLength":3624,
			"byteOffset":2416,
			"target":34962
		},
		{
			"buffer":0,
			"byteLength":2416,
			"byteOffset":6040,
			"target":34962
		},
		{
			"buffer":0,
			"byteLength":3624,
			"byteOffset":8456,
			"target":34962
		},
		{
			"buffer":0,
			"byteLength":1208,
			"byteOffset":12080,
			"target":34962
		},
		{
			"buffer":0,
			"byteLength":4832,
			"byteOffset":13288,
			"target":34962
		},
		{
			"buffer":0,
			"byteLength":2688,
			"byteOffset":18120,
			"target":34963
		},
		{
			"buffer":0,
			"byteLength":576,
			"byteOffset":20808
		},
		{
			"buffer":0,
			"byteLength":7136,
			"byteOffset":21384,
			"target":34962
		},
		{
			"buffer":0,
			"byteLength":10704,
			"byteOffset":28520,
			"target":34962
		},
		{
			"buffer":0,
			"byteLength":7136,
			"byteOffset":39224,
			"target":34962
		},
		{
			"buffer":0,
			"byteLength":10704,
			"byteOffset":46360,
			"target":34962
		},
		{
			"buffer":0,
			"byteLength":3568,
			"byteOffset":57064,
			"target":34962
		},
		{
			"buffer":0,
			"byteLength":14272,
			"byteOffset":60632,
			"target":34962
		},
		{
			"buffer":0,
			"byteLength":9864,
			"byteOffset":74904,
			"target":34963
		},
		{
			"buffer":0,
			"byteLength":13908,
			"byteOffset":84768,
			"target":34962
		},
		{
			"buffer":0,
			"byteLength":9272,
			"byteOffset":98676,
			"target":34962
		},
		{
			"buffer":0,
			"byteLength":13908,
			"byteOffset":107948,
			"target":34962
		},
		{
			"buffer":0,
			"byteLength":4636,
			"byteOffset":121856,
			"target":34962
		},
		{
			"buffer":0,
			"byteLength":18544,
			"byteOffset":126492,
			"target":34962
		},
		{
			"buffer":0,
			"byteLength":10704,
			"byteOffset":145036,
			"target":34963
		},
		{
			"buffer":0,
			"byteLength":320,
			"byteOffset":155740
		},
		{
			"buffer":0,
			"byteLength":240,
			"byteOffset":156060
		},
		{
			"buffer":0,
			"byteLength":720,
			"byteOffset":156300
		},
		{
			"buffer":0,
			"byteLength":960,
			"byteOffset":157020
		},
		{
			"buffer":0,
			"byteLength":720,
			"byteOffset":157980
		},
		{
			"buffer":0,
			"byteLength":720,
			"byteOffset":158700
		},
		{
			"buffer":0,
			"byteLength":960,
			"byteOffset":159420
		},
		{
			"buffer":0,
			"byteLength":720,
			"byteOffset":160380
		},
		{
			"buffer":0,
			"byteLength":720,
			"byteOffset":161100
		},
		{
			"buffer":0,
			"byteLength":960,
			"byteOffset":161820
		},
		{
			"buffer":0,
			"byteLength":720,
			"byteOffset":162780
		},
		{
			"buffer":0,
			"byteLength":720,
			"byteOffset":163500
		},
		{
			"buffer":0,
			"byteLength":960,
			"byteOffset":164220
		},
		{
			"buffer":0,
			"byteLength":720,
			"byteOffset":165180
		},
		{
			"buffer":0,
			"byteLength":720,
			"byteOffset":165900
		},
		{
			"buffer":0,
			"byteLength":960,
			"byteOffset":166620
		},
		{
			"buffer":0,
			"byteLength":720,
			"byteOffset":167580
		},
		{
			"buffer":0,
			"byteLength":720,
			"byteOffset":168300
		},
		{
			"buffer":0,
			"byteLength":960,
			"byteOffset":169020
		},
		{
			"buffer":0,
			"byteLength":720,
			"byteOffset":169980
		},
		{
			"buffer":0,
			"byteLength":720,
			"byteOffset":170700
		},
		{
			"buffer":0,
			"byteLength":960,
			"byteOffset":171420
		},
		{
			"buffer":0,
			"byteLength":720,
			"byteOffset":172380
		},
		{
			"buffer":0,
			"byteLength":720,
			"byteOffset":173100
		},
		{
			"buffer":0,
			"byteLength":960,
			"byteOffset":173820
		},
		{
			"buffer":0,
			"byteLength":720,
			"byteOffset":174780
		},
		{
			"buffer":0,
			"byteLength":720,
			"byteOffset":175500
		},
		{
			"buffer":0,
			"byteLength":960,
			"byteOffset":176220
		},
		{
			"buffer":0,
			"byteLength":720,
			"byteOffset":177180
		},
		{
			"buffer":0,
			"byteLength":720,
			"byteOffset":177900
		},
		{
			"buffer":0,
			"byteLength":960,
			"byteOffset":178620
		},
		{
			"buffer":0,
			"byteLength":720,
			"byteOffset":179580
		}
	],
	"buffers":[
		{
			"byteLength":180300,
			"uri":"data:application/octet-stream;base64,"
		}
	]
}
