{
	"asset":{
		"generator":"Khronos glTF Blender I/O v3.5.30",
		"version":"2.0"
	},
	"scene":0,
	"scenes":[
		{
			"name":"Scene",
			"nodes":[
				11
			]
		}
	],
	"nodes":[
		{
			"name":"Neck_Start",
			"rotation":[
				2.117582368135751e-22,
				0,
				0,
				1
			],
			"scale":[
				1,
				0.9999999403953552,
				1
			],
			"translation":[
				0,
				2.371476650238037,
				0
			]
		},
		{
			"children":[
				0
			],
			"name":"Neck_01",
			"rotation":[
				2.117582368135751e-22,
				0,
				0,
				1
			],
			"translation":[
				0,
				1.7247099876403809,
				0
			]
		},
		{
			"children":[
				1
			],
			"name":"Neck_02",
			"rotation":[
				0,
				0,
				3.944304526105059e-31,
				1
			],
			"translation":[
				0,
				1.7835068702697754,
				0
			]
		},
		{
			"children":[
				2
			],
			"name":"Neck_03",
			"rotation":[
				0,
				0,
				3.944304526105059e-31,
				1
			],
			"translation":[
				0,
				1.6463141441345215,
				0
			]
		},
		{
			"children":[
				3
			],
			"name":"Neck_04",
			"rotation":[
				0,
				0,
				3.944304526105059e-31,
				1
			],
			"translation":[
				0,
				1.7835073471069336,
				0
			]
		},
		{
			"children":[
				4
			],
			"name":"Neck_05",
			"rotation":[
				0,
				0,
				3.944304526105059e-31,
				1
			],
			"translation":[
				0,
				1.7639074325561523,
				0
			]
		},
		{
			"children":[
				5
			],
			"name":"Neck_06",
			"rotation":[
				-3.552713678800501e-15,
				7.006492321624085e-45,
				-4.242569760705303e-31,
				1
			],
			"translation":[
				-2.041177592259368e-29,
				1.7051095962524414,
				2.432000998156547e-16
			]
		},
		{
			"children":[
				6
			],
			"name":"Neck_07",
			"rotation":[
				4.3711374075883214e-08,
				-3.944304526105059e-31,
				-2.220445255156925e-16,
				1
			],
			"scale":[
				1,
				0.9999999403953552,
				1
			],
			"translation":[
				2.3665827156630354e-30,
				2.803743362426758,
				-1.1368683772161603e-13
			]
		},
		{
			"children":[
				7
			],
			"name":"Head",
			"rotation":[
				-0.7071067690849304,
				1.5700919024171951e-16,
				1.5700919024171951e-16,
				0.7071067690849304
			],
			"translation":[
				8.446006921462596e-16,
				1.2255551951056987e-07,
				16.543079376220703
			]
		},
		{
			"mesh":0,
			"name":"Eyes",
			"skin":0
		},
		{
			"mesh":1,
			"name":"Head",
			"skin":0
		},
		{
			"children":[
				9,
				10,
				8
			],
			"name":"Head_Armature"
		}
	],
	"meshes":[
		{
			"name":"Cylinder.001",
			"primitives":[
				{
					"attributes":{
						"COLOR_0":0,
						"POSITION":1,
						"TEXCOORD_0":2,
						"NORMAL":3,
						"JOINTS_0":4,
						"WEIGHTS_0":5
					},
					"indices":6
				}
			]
		},
		{
			"name":"Cylinder",
			"primitives":[
				{
					"attributes":{
						"COLOR_0":8,
						"POSITION":9,
						"TEXCOORD_0":10,
						"NORMAL":11,
						"JOINTS_0":12,
						"WEIGHTS_0":13
					},
					"indices":14
				}
			]
		}
	],
	"skins":[
		{
			"inverseBindMatrices":7,
			"joints":[
				8,
				7,
				6,
				5,
				4,
				3,
				2,
				1,
				0
			],
			"name":"Head_Armature"
		}
	],
	"accessors":[
		{
			"bufferView":0,
			"componentType":5123,
			"count":302,
			"normalized":true,
			"type":"VEC4"
		},
		{
			"bufferView":1,
			"componentType":5126,
			"count":302,
			"max":[
				0.8760730028152466,
				0.9782857298851013,
				15.160953521728516
			],
			"min":[
				-0.8760730028152466,
				0.24299120903015137,
				14.421920776367188
			],
			"type":"VEC3"
		},
		{
			"bufferView":2,
			"componentType":5126,
			"count":302,
			"type":"VEC2"
		},
		{
			"bufferView":3,
			"componentType":5126,
			"count":302,
			"type":"VEC3"
		},
		{
			"bufferView":4,
			"componentType":5121,
			"count":302,
			"type":"VEC4"
		},
		{
			"bufferView":5,
			"componentType":5126,
			"count":302,
			"type":"VEC4"
		},
		{
			"bufferView":6,
			"componentType":5123,
			"count":1344,
			"type":"SCALAR"
		},
		{
			"bufferView":7,
			"componentType":5126,
			"count":9,
			"type":"MAT4"
		},
		{
			"bufferView":8,
			"componentType":5123,
			"count":962,
			"normalized":true,
			"type":"VEC4"
		},
		{
			"bufferView":9,
			"componentType":5126,
			"count":962,
			"max":[
				1.2370214462280273,
				1.198525071144104,
				16.9943904876709
			],
			"min":[
				-1.237021565437317,
				-0.9466846585273743,
				0.9902154207229614
			],
			"type":"VEC3"
		},
		{
			"bufferView":10,
			"componentType":5126,
			"count":962,
			"type":"VEC2"
		},
		{
			"bufferView":11,
			"componentType":5126,
			"count":962,
			"type":"VEC3"
		},
		{
			"bufferView":12,
			"componentType":5121,
			"count":962,
			"type":"VEC4"
		},
		{
			"bufferView":13,
			"componentType":5126,
			"count":962,
			"type":"VEC4"
		},
		{
			"bufferView":14,
			"componentType":5123,
			"count":5166,
			"type":"SCALAR"
		}
	],
	"bufferViews":[
		{
			"buffer":0,
			"byteLength":2416,
			"byteOffset":0,
			"target":34962
		},
		{
			"buffer":0,
			"byteLength":3624,
			"byteOffset":2416,
			"target":34962
		},
		{
			"buffer":0,
			"byteLength":2416,
			"byteOffset":6040,
			"target":34962
		},
		{
			"buffer":0,
			"byteLength":3624,
			"byteOffset":8456,
			"target":34962
		},
		{
			"buffer":0,
			"byteLength":1208,
			"byteOffset":12080,
			"target":34962
		},
		{
			"buffer":0,
			"byteLength":4832,
			"byteOffset":13288,
			"target":34962
		},
		{
			"buffer":0,
			"byteLength":2688,
			"byteOffset":18120,
			"target":34963
		},
		{
			"buffer":0,
			"byteLength":576,
			"byteOffset":20808
		},
		{
			"buffer":0,
			"byteLength":7696,
			"byteOffset":21384,
			"target":34962
		},
		{
			"buffer":0,
			"byteLength":11544,
			"byteOffset":29080,
			"target":34962
		},
		{
			"buffer":0,
			"byteLength":7696,
			"byteOffset":40624,
			"target":34962
		},
		{
			"buffer":0,
			"byteLength":11544,
			"byteOffset":48320,
			"target":34962
		},
		{
			"buffer":0,
			"byteLength":3848,
			"byteOffset":59864,
			"target":34962
		},
		{
			"buffer":0,
			"byteLength":15392,
			"byteOffset":63712,
			"target":34962
		},
		{
			"buffer":0,
			"byteLength":10332,
			"byteOffset":79104,
			"target":34963
		}
	],
	"buffers":[
		{
			"byteLength":89436,
			"uri":"data:application/octet-stream;base64,"
		}
	]
}
