{
	"asset":{
		"generator":"Khronos glTF Blender I/O v3.5.30",
		"version":"2.0"
	},
	"scene":0,
	"scenes":[
		{
			"name":"Scene",
			"nodes":[
				6
			]
		}
	],
	"nodes":[
		{
			"name":"Root",
			"rotation":[
				0.7071067690849304,
				-1.376787679419067e-07,
				-1.376787679419067e-07,
				0.7071067690849304
			]
		},
		{
			"name":"Bone.004",
			"rotation":[
				-0.0008556367247365415,
				-5.686428297636478e-14,
				6.119995621389762e-10,
				0.9999996423721313
			],
			"scale":[
				1,
				0.9999999403953552,
				0.9999999403953552
			],
			"translation":[
				3.0815228027700897e-16,
				0.8550496697425842,
				3.725290298461914e-09
			]
		},
		{
			"children":[
				1
			],
			"name":"Bone.003",
			"rotation":[
				0.04160834103822708,
				1.4334291132539478e-14,
				-2.9760588660110443e-08,
				0.9991340041160583
			],
			"scale":[
				1,
				0.9999998807907104,
				0.9999999403953552
			],
			"translation":[
				-5.800261394231163e-16,
				0.6853575706481934,
				0
			]
		},
		{
			"children":[
				2
			],
			"name":"Bone.002",
			"rotation":[
				0.15303835272789001,
				-8.538273034560881e-14,
				-1.0946158113256388e-07,
				0.9882202744483948
			],
			"scale":[
				1,
				0.9999999403953552,
				0.9999999403953552
			],
			"translation":[
				3.921754075457938e-15,
				0.8367076516151428,
				1.1175870895385742e-08
			]
		},
		{
			"children":[
				3
			],
			"name":"Bone.001",
			"rotation":[
				-0.8256776928901672,
				-2.0175288284463022e-07,
				2.9528530376410345e-07,
				0.564142107963562
			],
			"scale":[
				1,
				0.9999999403953552,
				1
			],
			"translation":[
				1.6888370542460815e-16,
				0.31392961740493774,
				0.3328441381454468
			]
		},
		{
			"mesh":0,
			"name":"Body",
			"skin":0
		},
		{
			"children":[
				5,
				0,
				4
			],
			"name":"Body_Armature"
		}
	],
	"animations":[
		{
			"channels":[
				{
					"sampler":0,
					"target":{
						"node":0,
						"path":"translation"
					}
				},
				{
					"sampler":1,
					"target":{
						"node":0,
						"path":"rotation"
					}
				},
				{
					"sampler":2,
					"target":{
						"node":0,
						"path":"scale"
					}
				},
				{
					"sampler":3,
					"target":{
						"node":4,
						"path":"translation"
					}
				},
				{
					"sampler":4,
					"target":{
						"node":4,
						"path":"rotation"
					}
				},
				{
					"sampler":5,
					"target":{
						"node":4,
						"path":"scale"
					}
				},
				{
					"sampler":6,
					"target":{
						"node":3,
						"path":"translation"
					}
				},
				{
					"sampler":7,
					"target":{
						"node":3,
						"path":"rotation"
					}
				},
				{
					"sampler":8,
					"target":{
						"node":3,
						"path":"scale"
					}
				},
				{
					"sampler":9,
					"target":{
						"node":2,
						"path":"translation"
					}
				},
				{
					"sampler":10,
					"target":{
						"node":2,
						"path":"rotation"
					}
				},
				{
					"sampler":11,
					"target":{
						"node":2,
						"path":"scale"
					}
				},
				{
					"sampler":12,
					"target":{
						"node":1,
						"path":"translation"
					}
				},
				{
					"sampler":13,
					"target":{
						"node":1,
						"path":"rotation"
					}
				},
				{
					"sampler":14,
					"target":{
						"node":1,
						"path":"scale"
					}
				}
			],
			"name":"Hydra_Idle",
			"samplers":[
				{
					"input":7,
					"interpolation":"LINEAR",
					"output":8
				},
				{
					"input":7,
					"interpolation":"LINEAR",
					"output":9
				},
				{
					"input":7,
					"interpolation":"LINEAR",
					"output":10
				},
				{
					"input":7,
					"interpolation":"LINEAR",
					"output":11
				},
				{
					"input":7,
					"interpolation":"LINEAR",
					"output":12
				},
				{
					"input":7,
					"interpolation":"LINEAR",
					"output":13
				},
				{
					"input":7,
					"interpolation":"LINEAR",
					"output":14
				},
				{
					"input":7,
					"interpolation":"LINEAR",
					"output":15
				},
				{
					"input":7,
					"interpolation":"LINEAR",
					"output":16
				},
				{
					"input":7,
					"interpolation":"LINEAR",
					"output":17
				},
				{
					"input":7,
					"interpolation":"LINEAR",
					"output":18
				},
				{
					"input":7,
					"interpolation":"LINEAR",
					"output":19
				},
				{
					"input":7,
					"interpolation":"LINEAR",
					"output":20
				},
				{
					"input":7,
					"interpolation":"LINEAR",
					"output":21
				},
				{
					"input":7,
					"interpolation":"LINEAR",
					"output":22
				}
			]
		},
		{
			"channels":[
				{
					"sampler":0,
					"target":{
						"node":0,
						"path":"translation"
					}
				},
				{
					"sampler":1,
					"target":{
						"node":0,
						"path":"rotation"
					}
				},
				{
					"sampler":2,
					"target":{
						"node":0,
						"path":"scale"
					}
				},
				{
					"sampler":3,
					"target":{
						"node":4,
						"path":"translation"
					}
				},
				{
					"sampler":4,
					"target":{
						"node":4,
						"path":"rotation"
					}
				},
				{
					"sampler":5,
					"target":{
						"node":4,
						"path":"scale"
					}
				},
				{
					"sampler":6,
					"target":{
						"node":3,
						"path":"translation"
					}
				},
				{
					"sampler":7,
					"target":{
						"node":3,
						"path":"rotation"
					}
				},
				{
					"sampler":8,
					"target":{
						"node":3,
						"path":"scale"
					}
				},
				{
					"sampler":9,
					"target":{
						"node":2,
						"path":"translation"
					}
				},
				{
					"sampler":10,
					"target":{
						"node":2,
						"path":"rotation"
					}
				},
				{
					"sampler":11,
					"target":{
						"node":2,
						"path":"scale"
					}
				},
				{
					"sampler":12,
					"target":{
						"node":1,
						"path":"translation"
					}
				},
				{
					"sampler":13,
					"target":{
						"node":1,
						"path":"rotation"
					}
				},
				{
					"sampler":14,
					"target":{
						"node":1,
						"path":"scale"
					}
				}
			],
			"name":"Hydra_Move",
			"samplers":[
				{
					"input":7,
					"interpolation":"LINEAR",
					"output":23
				},
				{
					"input":7,
					"interpolation":"LINEAR",
					"output":24
				},
				{
					"input":7,
					"interpolation":"LINEAR",
					"output":25
				},
				{
					"input":7,
					"interpolation":"LINEAR",
					"output":26
				},
				{
					"input":7,
					"interpolation":"LINEAR",
					"output":27
				},
				{
					"input":7,
					"interpolation":"LINEAR",
					"output":28
				},
				{
					"input":7,
					"interpolation":"LINEAR",
					"output":29
				},
				{
					"input":7,
					"interpolation":"LINEAR",
					"output":30
				},
				{
					"input":7,
					"interpolation":"LINEAR",
					"output":31
				},
				{
					"input":7,
					"interpolation":"LINEAR",
					"output":32
				},
				{
					"input":7,
					"interpolation":"LINEAR",
					"output":33
				},
				{
					"input":7,
					"interpolation":"LINEAR",
					"output":34
				},
				{
					"input":7,
					"interpolation":"LINEAR",
					"output":35
				},
				{
					"input":7,
					"interpolation":"LINEAR",
					"output":36
				},
				{
					"input":7,
					"interpolation":"LINEAR",
					"output":37
				}
			]
		}
	],
	"meshes":[
		{
			"name":"Cube",
			"primitives":[
				{
					"attributes":{
						"POSITION":0,
						"TEXCOORD_0":1,
						"NORMAL":2,
						"JOINTS_0":3,
						"WEIGHTS_0":4
					},
					"indices":5
				}
			]
		}
	],
	"skins":[
		{
			"inverseBindMatrices":6,
			"joints":[
				0,
				4,
				3,
				2,
				1
			],
			"name":"Body_Armature"
		}
	],
	"accessors":[
		{
			"bufferView":0,
			"componentType":5126,
			"count":1159,
			"max":[
				0.5410979986190796,
				0.5554416179656982,
				0.561470627784729
			],
			"min":[
				-0.5410981178283691,
				-0.30786824226379395,
				-2.8070735931396484
			],
			"type":"VEC3"
		},
		{
			"bufferView":1,
			"componentType":5126,
			"count":1159,
			"type":"VEC2"
		},
		{
			"bufferView":2,
			"componentType":5126,
			"count":1159,
			"type":"VEC3"
		},
		{
			"bufferView":3,
			"componentType":5121,
			"count":1159,
			"type":"VEC4"
		},
		{
			"bufferView":4,
			"componentType":5126,
			"count":1159,
			"type":"VEC4"
		},
		{
			"bufferView":5,
			"componentType":5123,
			"count":5352,
			"type":"SCALAR"
		},
		{
			"bufferView":6,
			"componentType":5126,
			"count":5,
			"type":"MAT4"
		},
		{
			"bufferView":7,
			"componentType":5126,
			"count":60,
			"max":[
				2.5
			],
			"min":[
				0.041666666666666664
			],
			"type":"SCALAR"
		},
		{
			"bufferView":8,
			"componentType":5126,
			"count":60,
			"type":"VEC3"
		},
		{
			"bufferView":9,
			"componentType":5126,
			"count":60,
			"type":"VEC4"
		},
		{
			"bufferView":10,
			"componentType":5126,
			"count":60,
			"type":"VEC3"
		},
		{
			"bufferView":11,
			"componentType":5126,
			"count":60,
			"type":"VEC3"
		},
		{
			"bufferView":12,
			"componentType":5126,
			"count":60,
			"type":"VEC4"
		},
		{
			"bufferView":13,
			"componentType":5126,
			"count":60,
			"type":"VEC3"
		},
		{
			"bufferView":14,
			"componentType":5126,
			"count":60,
			"type":"VEC3"
		},
		{
			"bufferView":15,
			"componentType":5126,
			"count":60,
			"type":"VEC4"
		},
		{
			"bufferView":16,
			"componentType":5126,
			"count":60,
			"type":"VEC3"
		},
		{
			"bufferView":17,
			"componentType":5126,
			"count":60,
			"type":"VEC3"
		},
		{
			"bufferView":18,
			"componentType":5126,
			"count":60,
			"type":"VEC4"
		},
		{
			"bufferView":19,
			"componentType":5126,
			"count":60,
			"type":"VEC3"
		},
		{
			"bufferView":20,
			"componentType":5126,
			"count":60,
			"type":"VEC3"
		},
		{
			"bufferView":21,
			"componentType":5126,
			"count":60,
			"type":"VEC4"
		},
		{
			"bufferView":22,
			"componentType":5126,
			"count":60,
			"type":"VEC3"
		},
		{
			"bufferView":23,
			"componentType":5126,
			"count":60,
			"type":"VEC3"
		},
		{
			"bufferView":24,
			"componentType":5126,
			"count":60,
			"type":"VEC4"
		},
		{
			"bufferView":25,
			"componentType":5126,
			"count":60,
			"type":"VEC3"
		},
		{
			"bufferView":26,
			"componentType":5126,
			"count":60,
			"type":"VEC3"
		},
		{
			"bufferView":27,
			"componentType":5126,
			"count":60,
			"type":"VEC4"
		},
		{
			"bufferView":28,
			"componentType":5126,
			"count":60,
			"type":"VEC3"
		},
		{
			"bufferView":29,
			"componentType":5126,
			"count":60,
			"type":"VEC3"
		},
		{
			"bufferView":30,
			"componentType":5126,
			"count":60,
			"type":"VEC4"
		},
		{
			"bufferView":31,
			"componentType":5126,
			"count":60,
			"type":"VEC3"
		},
		{
			"bufferView":32,
			"componentType":5126,
			"count":60,
			"type":"VEC3"
		},
		{
			"bufferView":33,
			"componentType":5126,
			"count":60,
			"type":"VEC4"
		},
		{
			"bufferView":34,
			"componentType":5126,
			"count":60,
			"type":"VEC3"
		},
		{
			"bufferView":35,
			"componentType":5126,
			"count":60,
			"type":"VEC3"
		},
		{
			"bufferView":36,
			"componentType":5126,
			"count":60,
			"type":"VEC4"
		},
		{
			"bufferView":37,
			"componentType":5126,
			"count":60,
			"type":"VEC3"
		}
	],
	"bufferViews":[
		{
			"buffer":0,
			"byteLength":13908,
			"byteOffset":0,
			"target":34962
		},
		{
			"buffer":0,
			"byteLength":9272,
			"byteOffset":13908,
			"target":34962
		},
		{
			"buffer":0,
			"byteLength":13908,
			"byteOffset":23180,
			"target":34962
		},
		{
			"buffer":0,
			"byteLength":4636,
			"byteOffset":37088,
			"target":34962
		},
		{
			"buffer":0,
			"byteLength":18544,
			"byteOffset":41724,
			"target":34962
		},
		{
			"buffer":0,
			"byteLength":10704,
			"byteOffset":60268,
			"target":34963
		},
		{
			"buffer":0,
			"byteLength":320,
			"byteOffset":70972
		},
		{
			"buffer":0,
			"byteLength":240,
			"byteOffset":71292
		},
		{
			"buffer":0,
			"byteLength":720,
			"byteOffset":71532
		},
		{
			"buffer":0,
			"byteLength":960,
			"byteOffset":72252
		},
		{
			"buffer":0,
			"byteLength":720,
			"byteOffset":73212
		},
		{
			"buffer":0,
			"byteLength":720,
			"byteOffset":73932
		},
		{
			"buffer":0,
			"byteLength":960,
			"byteOffset":74652
		},
		{
			"buffer":0,
			"byteLength":720,
			"byteOffset":75612
		},
		{
			"buffer":0,
			"byteLength":720,
			"byteOffset":76332
		},
		{
			"buffer":0,
			"byteLength":960,
			"byteOffset":77052
		},
		{
			"buffer":0,
			"byteLength":720,
			"byteOffset":78012
		},
		{
			"buffer":0,
			"byteLength":720,
			"byteOffset":78732
		},
		{
			"buffer":0,
			"byteLength":960,
			"byteOffset":79452
		},
		{
			"buffer":0,
			"byteLength":720,
			"byteOffset":80412
		},
		{
			"buffer":0,
			"byteLength":720,
			"byteOffset":81132
		},
		{
			"buffer":0,
			"byteLength":960,
			"byteOffset":81852
		},
		{
			"buffer":0,
			"byteLength":720,
			"byteOffset":82812
		},
		{
			"buffer":0,
			"byteLength":720,
			"byteOffset":83532
		},
		{
			"buffer":0,
			"byteLength":960,
			"byteOffset":84252
		},
		{
			"buffer":0,
			"byteLength":720,
			"byteOffset":85212
		},
		{
			"buffer":0,
			"byteLength":720,
			"byteOffset":85932
		},
		{
			"buffer":0,
			"byteLength":960,
			"byteOffset":86652
		},
		{
			"buffer":0,
			"byteLength":720,
			"byteOffset":87612
		},
		{
			"buffer":0,
			"byteLength":720,
			"byteOffset":88332
		},
		{
			"buffer":0,
			"byteLength":960,
			"byteOffset":89052
		},
		{
			"buffer":0,
			"byteLength":720,
			"byteOffset":90012
		},
		{
			"buffer":0,
			"byteLength":720,
			"byteOffset":90732
		},
		{
			"buffer":0,
			"byteLength":960,
			"byteOffset":91452
		},
		{
			"buffer":0,
			"byteLength":720,
			"byteOffset":92412
		},
		{
			"buffer":0,
			"byteLength":720,
			"byteOffset":93132
		},
		{
			"buffer":0,
			"byteLength":960,
			"byteOffset":93852
		},
		{
			"buffer":0,
			"byteLength":720,
			"byteOffset":94812
		}
	],
	"buffers":[
		{
			"byteLength":95532,
			"uri":"data:application/octet-stream;base64,"
		}
	]
}
