{
	"asset":{
		"generator":"Khronos glTF Blender I/O v3.5.30",
		"version":"2.0"
	},
	"scene":0,
	"scenes":[
		{
			"name":"Scene",
			"nodes":[
				10
			]
		}
	],
	"nodes":[
		{
			"name":"Neck_Start",
			"translation":[
				0,
				0.4742952585220337,
				0
			]
		},
		{
			"children":[
				0
			],
			"name":"Neck_01",
			"translation":[
				0,
				0.3449418544769287,
				0
			]
		},
		{
			"children":[
				1
			],
			"name":"Neck_02",
			"translation":[
				0,
				0.3567013740539551,
				0
			]
		},
		{
			"children":[
				2
			],
			"name":"Neck_03",
			"translation":[
				0,
				0.32926273345947266,
				0
			]
		},
		{
			"children":[
				3
			],
			"name":"Neck_04",
			"translation":[
				0,
				0.3567018508911133,
				0
			]
		},
		{
			"children":[
				4
			],
			"name":"Neck_05",
			"translation":[
				0,
				0.3527812957763672,
				0
			]
		},
		{
			"children":[
				5
			],
			"name":"Neck_06",
			"rotation":[
				0,
				0,
				-8.485166792879545e-31,
				1
			],
			"translation":[
				-4.0798899941899204e-30,
				0.3410224914550781,
				0
			]
		},
		{
			"children":[
				6
			],
			"name":"Neck_07",
			"rotation":[
				4.371142026116104e-08,
				0,
				-2.220447637437089e-16,
				1
			],
			"translation":[
				-2.6469779601696886e-23,
				0.5607481002807617,
				-7.105427357601002e-15
			]
		},
		{
			"children":[
				7
			],
			"name":"Head",
			"rotation":[
				-0.7071067690849304,
				1.5700934906039712e-16,
				1.5700934906039712e-16,
				0.7071067690849304
			],
			"translation":[
				1.6892012784134008e-16,
				2.45111024810285e-08,
				3.3086156845092773
			]
		},
		{
			"mesh":0,
			"name":"Head_Legacy",
			"skin":0
		},
		{
			"children":[
				9,
				8
			],
			"name":"Head_Armature_Legacy"
		}
	],
	"meshes":[
		{
			"name":"Cylinder",
			"primitives":[
				{
					"attributes":{
						"COLOR_0":0,
						"POSITION":1,
						"TEXCOORD_0":2,
						"TEXCOORD_1":3,
						"NORMAL":4,
						"JOINTS_0":5,
						"WEIGHTS_0":6
					},
					"indices":7
				},
				{
					"attributes":{
						"COLOR_0":8,
						"POSITION":9,
						"TEXCOORD_0":10,
						"TEXCOORD_1":11,
						"NORMAL":12,
						"JOINTS_0":13,
						"WEIGHTS_0":14
					},
					"indices":15
				},
				{
					"attributes":{
						"COLOR_0":16,
						"POSITION":17,
						"TEXCOORD_0":18,
						"TEXCOORD_1":19,
						"NORMAL":20,
						"JOINTS_0":21,
						"WEIGHTS_0":22
					},
					"indices":23
				}
			]
		}
	],
	"skins":[
		{
			"inverseBindMatrices":24,
			"joints":[
				8,
				7,
				6,
				5,
				4,
				3,
				2,
				1,
				0
			],
			"name":"Head_Armature_Legacy"
		}
	],
	"accessors":[
		{
			"bufferView":0,
			"componentType":5123,
			"count":63,
			"normalized":true,
			"type":"VEC4"
		},
		{
			"bufferView":1,
			"componentType":5126,
			"count":63,
			"max":[
				0.2361736297607422,
				0.08746257424354553,
				3.3988780975341797
			],
			"min":[
				-0.2361736297607422,
				-0.11320194602012634,
				0.1980431079864502
			],
			"type":"VEC3"
		},
		{
			"bufferView":2,
			"componentType":5126,
			"count":63,
			"type":"VEC2"
		},
		{
			"bufferView":3,
			"componentType":5126,
			"count":63,
			"type":"VEC2"
		},
		{
			"bufferView":4,
			"componentType":5126,
			"count":63,
			"type":"VEC3"
		},
		{
			"bufferView":5,
			"componentType":5121,
			"count":63,
			"type":"VEC4"
		},
		{
			"bufferView":6,
			"componentType":5126,
			"count":63,
			"type":"VEC4"
		},
		{
			"bufferView":7,
			"componentType":5123,
			"count":222,
			"type":"SCALAR"
		},
		{
			"bufferView":8,
			"componentType":5123,
			"count":302,
			"normalized":true,
			"type":"VEC4"
		},
		{
			"bufferView":9,
			"componentType":5126,
			"count":302,
			"max":[
				0.17521458864212036,
				0.1956571340560913,
				3.0321903228759766
			],
			"min":[
				-0.17521458864212036,
				0.04859824478626251,
				2.8843841552734375
			],
			"type":"VEC3"
		},
		{
			"bufferView":10,
			"componentType":5126,
			"count":302,
			"type":"VEC2"
		},
		{
			"bufferView":11,
			"componentType":5126,
			"count":302,
			"type":"VEC2"
		},
		{
			"bufferView":12,
			"componentType":5126,
			"count":302,
			"type":"VEC3"
		},
		{
			"bufferView":13,
			"componentType":5121,
			"count":302,
			"type":"VEC4"
		},
		{
			"bufferView":14,
			"componentType":5126,
			"count":302,
			"type":"VEC4"
		},
		{
			"bufferView":15,
			"componentType":5123,
			"count":1344,
			"type":"SCALAR"
		},
		{
			"bufferView":16,
			"componentType":5123,
			"count":899,
			"normalized":true,
			"type":"VEC4"
		},
		{
			"bufferView":17,
			"componentType":5126,
			"count":899,
			"max":[
				0.2474042773246765,
				0.23970502614974976,
				3.3988780975341797
			],
			"min":[
				-0.2474043369293213,
				-0.18933695554733276,
				0.1980431079864502
			],
			"type":"VEC3"
		},
		{
			"bufferView":18,
			"componentType":5126,
			"count":899,
			"type":"VEC2"
		},
		{
			"bufferView":19,
			"componentType":5126,
			"count":899,
			"type":"VEC2"
		},
		{
			"bufferView":20,
			"componentType":5126,
			"count":899,
			"type":"VEC3"
		},
		{
			"bufferView":21,
			"componentType":5121,
			"count":899,
			"type":"VEC4"
		},
		{
			"bufferView":22,
			"componentType":5126,
			"count":899,
			"type":"VEC4"
		},
		{
			"bufferView":23,
			"componentType":5123,
			"count":4944,
			"type":"SCALAR"
		},
		{
			"bufferView":24,
			"componentType":5126,
			"count":9,
			"type":"MAT4"
		}
	],
	"bufferViews":[
		{
			"buffer":0,
			"byteLength":504,
			"byteOffset":0,
			"target":34962
		},
		{
			"buffer":0,
			"byteLength":756,
			"byteOffset":504,
			"target":34962
		},
		{
			"buffer":0,
			"byteLength":504,
			"byteOffset":1260,
			"target":34962
		},
		{
			"buffer":0,
			"byteLength":504,
			"byteOffset":1764,
			"target":34962
		},
		{
			"buffer":0,
			"byteLength":756,
			"byteOffset":2268,
			"target":34962
		},
		{
			"buffer":0,
			"byteLength":252,
			"byteOffset":3024,
			"target":34962
		},
		{
			"buffer":0,
			"byteLength":1008,
			"byteOffset":3276,
			"target":34962
		},
		{
			"buffer":0,
			"byteLength":444,
			"byteOffset":4284,
			"target":34963
		},
		{
			"buffer":0,
			"byteLength":2416,
			"byteOffset":4728,
			"target":34962
		},
		{
			"buffer":0,
			"byteLength":3624,
			"byteOffset":7144,
			"target":34962
		},
		{
			"buffer":0,
			"byteLength":2416,
			"byteOffset":10768,
			"target":34962
		},
		{
			"buffer":0,
			"byteLength":2416,
			"byteOffset":13184,
			"target":34962
		},
		{
			"buffer":0,
			"byteLength":3624,
			"byteOffset":15600,
			"target":34962
		},
		{
			"buffer":0,
			"byteLength":1208,
			"byteOffset":19224,
			"target":34962
		},
		{
			"buffer":0,
			"byteLength":4832,
			"byteOffset":20432,
			"target":34962
		},
		{
			"buffer":0,
			"byteLength":2688,
			"byteOffset":25264,
			"target":34963
		},
		{
			"buffer":0,
			"byteLength":7192,
			"byteOffset":27952,
			"target":34962
		},
		{
			"buffer":0,
			"byteLength":10788,
			"byteOffset":35144,
			"target":34962
		},
		{
			"buffer":0,
			"byteLength":7192,
			"byteOffset":45932,
			"target":34962
		},
		{
			"buffer":0,
			"byteLength":7192,
			"byteOffset":53124,
			"target":34962
		},
		{
			"buffer":0,
			"byteLength":10788,
			"byteOffset":60316,
			"target":34962
		},
		{
			"buffer":0,
			"byteLength":3596,
			"byteOffset":71104,
			"target":34962
		},
		{
			"buffer":0,
			"byteLength":14384,
			"byteOffset":74700,
			"target":34962
		},
		{
			"buffer":0,
			"byteLength":9888,
			"byteOffset":89084,
			"target":34963
		},
		{
			"buffer":0,
			"byteLength":576,
			"byteOffset":98972
		}
	],
	"buffers":[
		{
			"byteLength":99548,
			"uri":"data:application/octet-stream;base64,"
		}
	]
}
