{
	"asset":{
		"generator":"Khronos glTF Blender I/O v3.5.30",
		"version":"2.0"
	},
	"scene":0,
	"scenes":[
		{
			"name":"Scene",
			"nodes":[
				11
			]
		}
	],
	"nodes":[
		{
			"name":"Neck_Start",
			"translation":[
				0,
				0.4742952585220337,
				0
			]
		},
		{
			"children":[
				0
			],
			"name":"Neck_01",
			"translation":[
				0,
				0.3449418544769287,
				0
			]
		},
		{
			"children":[
				1
			],
			"name":"Neck_02",
			"translation":[
				0,
				0.3567013740539551,
				0
			]
		},
		{
			"children":[
				2
			],
			"name":"Neck_03",
			"translation":[
				0,
				0.32926273345947266,
				0
			]
		},
		{
			"children":[
				3
			],
			"name":"Neck_04",
			"translation":[
				0,
				0.3567018508911133,
				0
			]
		},
		{
			"children":[
				4
			],
			"name":"Neck_05",
			"translation":[
				0,
				0.3527812957763672,
				0
			]
		},
		{
			"children":[
				5
			],
			"name":"Neck_06",
			"rotation":[
				0,
				0,
				-8.485166792879545e-31,
				1
			],
			"translation":[
				-4.0798899941899204e-30,
				0.3410224914550781,
				0
			]
		},
		{
			"children":[
				6
			],
			"name":"Neck_07",
			"rotation":[
				4.371142026116104e-08,
				0,
				-2.220447637437089e-16,
				1
			],
			"translation":[
				-2.6469779601696886e-23,
				0.5607481002807617,
				-7.105427357601002e-15
			]
		},
		{
			"children":[
				7
			],
			"name":"Head",
			"rotation":[
				-0.7071067690849304,
				1.5700934906039712e-16,
				1.5700934906039712e-16,
				0.7071067690849304
			],
			"translation":[
				1.6892012784134008e-16,
				2.45111024810285e-08,
				3.3086156845092773
			]
		},
		{
			"mesh":0,
			"name":"Eyes",
			"skin":0
		},
		{
			"mesh":1,
			"name":"Head_Legacy",
			"skin":0
		},
		{
			"children":[
				9,
				10,
				8
			],
			"name":"Head_Armature"
		}
	],
	"meshes":[
		{
			"name":"Cylinder.001",
			"primitives":[
				{
					"attributes":{
						"COLOR_0":0,
						"POSITION":1,
						"TEXCOORD_0":2,
						"NORMAL":3,
						"JOINTS_0":4,
						"WEIGHTS_0":5
					},
					"indices":6
				}
			]
		},
		{
			"name":"Cylinder",
			"primitives":[
				{
					"attributes":{
						"COLOR_0":8,
						"POSITION":9,
						"TEXCOORD_0":10,
						"NORMAL":11,
						"JOINTS_0":12,
						"WEIGHTS_0":13
					},
					"indices":14
				}
			]
		}
	],
	"skins":[
		{
			"inverseBindMatrices":7,
			"joints":[
				8,
				7,
				6,
				5,
				4,
				3,
				2,
				1,
				0
			],
			"name":"Head_Armature"
		}
	],
	"accessors":[
		{
			"bufferView":0,
			"componentType":5123,
			"count":302,
			"normalized":true,
			"type":"VEC4"
		},
		{
			"bufferView":1,
			"componentType":5126,
			"count":302,
			"max":[
				0.17521458864212036,
				0.1956571340560913,
				3.0321903228759766
			],
			"min":[
				-0.17521458864212036,
				0.04859824478626251,
				2.8843841552734375
			],
			"type":"VEC3"
		},
		{
			"bufferView":2,
			"componentType":5126,
			"count":302,
			"type":"VEC2"
		},
		{
			"bufferView":3,
			"componentType":5126,
			"count":302,
			"type":"VEC3"
		},
		{
			"bufferView":4,
			"componentType":5121,
			"count":302,
			"type":"VEC4"
		},
		{
			"bufferView":5,
			"componentType":5126,
			"count":302,
			"type":"VEC4"
		},
		{
			"bufferView":6,
			"componentType":5123,
			"count":1344,
			"type":"SCALAR"
		},
		{
			"bufferView":7,
			"componentType":5126,
			"count":9,
			"type":"MAT4"
		},
		{
			"bufferView":8,
			"componentType":5123,
			"count":962,
			"normalized":true,
			"type":"VEC4"
		},
		{
			"bufferView":9,
			"componentType":5126,
			"count":962,
			"max":[
				0.2474042773246765,
				0.23970502614974976,
				3.3988780975341797
			],
			"min":[
				-0.2474043369293213,
				-0.18933695554733276,
				0.1980431079864502
			],
			"type":"VEC3"
		},
		{
			"bufferView":10,
			"componentType":5126,
			"count":962,
			"type":"VEC2"
		},
		{
			"bufferView":11,
			"componentType":5126,
			"count":962,
			"type":"VEC3"
		},
		{
			"bufferView":12,
			"componentType":5121,
			"count":962,
			"type":"VEC4"
		},
		{
			"bufferView":13,
			"componentType":5126,
			"count":962,
			"type":"VEC4"
		},
		{
			"bufferView":14,
			"componentType":5123,
			"count":5166,
			"type":"SCALAR"
		}
	],
	"bufferViews":[
		{
			"buffer":0,
			"byteLength":2416,
			"byteOffset":0,
			"target":34962
		},
		{
			"buffer":0,
			"byteLength":3624,
			"byteOffset":2416,
			"target":34962
		},
		{
			"buffer":0,
			"byteLength":2416,
			"byteOffset":6040,
			"target":34962
		},
		{
			"buffer":0,
			"byteLength":3624,
			"byteOffset":8456,
			"target":34962
		},
		{
			"buffer":0,
			"byteLength":1208,
			"byteOffset":12080,
			"target":34962
		},
		{
			"buffer":0,
			"byteLength":4832,
			"byteOffset":13288,
			"target":34962
		},
		{
			"buffer":0,
			"byteLength":2688,
			"byteOffset":18120,
			"target":34963
		},
		{
			"buffer":0,
			"byteLength":576,
			"byteOffset":20808
		},
		{
			"buffer":0,
			"byteLength":7696,
			"byteOffset":21384,
			"target":34962
		},
		{
			"buffer":0,
			"byteLength":11544,
			"byteOffset":29080,
			"target":34962
		},
		{
			"buffer":0,
			"byteLength":7696,
			"byteOffset":40624,
			"target":34962
		},
		{
			"buffer":0,
			"byteLength":11544,
			"byteOffset":48320,
			"target":34962
		},
		{
			"buffer":0,
			"byteLength":3848,
			"byteOffset":59864,
			"target":34962
		},
		{
			"buffer":0,
			"byteLength":15392,
			"byteOffset":63712,
			"target":34962
		},
		{
			"buffer":0,
			"byteLength":10332,
			"byteOffset":79104,
			"target":34963
		}
	],
	"buffers":[
		{
			"byteLength":89436,
			"uri":"data:application/octet-stream;base64,"
		}
	]
}
