{
	"asset":{
		"generator":"Khronos glTF Blender I/O v3.5.30",
		"version":"2.0"
	},
	"scene":0,
	"scenes":[
		{
			"name":"Scene",
			"nodes":[
				0,
				1,
				2
			]
		}
	],
	"nodes":[
		{
			"mesh":0,
			"name":"Hole"
		},
		{
			"mesh":1,
			"name":"Grid",
			"translation":[
				-1,
				0,
				1
			]
		},
		{
			"mesh":2,
			"name":"Fan",
			"translation":[
				0,
				0,
				0.8827588558197021
			]
		}
	],
	"meshes":[
		{
			"name":"Cube",
			"primitives":[
				{
					"attributes":{
						"POSITION":0,
						"TEXCOORD_0":1,
						"NORMAL":2
					},
					"indices":3
				}
			]
		},
		{
			"name":"Mesh",
			"primitives":[
				{
					"attributes":{
						"POSITION":4,
						"TEXCOORD_0":5,
						"NORMAL":6
					},
					"indices":7
				}
			]
		},
		{
			"name":"Plane",
			"primitives":[
				{
					"attributes":{
						"POSITION":8,
						"TEXCOORD_0":9,
						"NORMAL":10
					},
					"indices":11
				}
			]
		}
	],
	"accessors":[
		{
			"bufferView":0,
			"componentType":5126,
			"count":326,
			"max":[
				3,
				1,
				1
			],
			"min":[
				-1,
				-1,
				-3
			],
			"type":"VEC3"
		},
		{
			"bufferView":1,
			"componentType":5126,
			"count":326,
			"type":"VEC2"
		},
		{
			"bufferView":2,
			"componentType":5126,
			"count":326,
			"type":"VEC3"
		},
		{
			"bufferView":3,
			"componentType":5123,
			"count":1248,
			"type":"SCALAR"
		},
		{
			"bufferView":4,
			"componentType":5126,
			"count":7256,
			"max":[
				2,
				1.0000001192092896,
				0.050000034272670746
			],
			"min":[
				0,
				-1.0000001192092896,
				0
			],
			"type":"VEC3"
		},
		{
			"bufferView":5,
			"componentType":5126,
			"count":7256,
			"type":"VEC2"
		},
		{
			"bufferView":6,
			"componentType":5126,
			"count":7256,
			"type":"VEC3"
		},
		{
			"bufferView":7,
			"componentType":5123,
			"count":37056,
			"type":"SCALAR"
		},
		{
			"bufferView":8,
			"componentType":5126,
			"count":675,
			"max":[
				0.8051960468292236,
				0.8058919906616211,
				0.08307868242263794
			],
			"min":[
				-0.8036494255065918,
				-0.8057382106781006,
				-0.08678516745567322
			],
			"type":"VEC3"
		},
		{
			"bufferView":9,
			"componentType":5126,
			"count":675,
			"type":"VEC2"
		},
		{
			"bufferView":10,
			"componentType":5126,
			"count":675,
			"type":"VEC3"
		},
		{
			"bufferView":11,
			"componentType":5123,
			"count":2592,
			"type":"SCALAR"
		}
	],
	"bufferViews":[
		{
			"buffer":0,
			"byteLength":3912,
			"byteOffset":0,
			"target":34962
		},
		{
			"buffer":0,
			"byteLength":2608,
			"byteOffset":3912,
			"target":34962
		},
		{
			"buffer":0,
			"byteLength":3912,
			"byteOffset":6520,
			"target":34962
		},
		{
			"buffer":0,
			"byteLength":2496,
			"byteOffset":10432,
			"target":34963
		},
		{
			"buffer":0,
			"byteLength":87072,
			"byteOffset":12928,
			"target":34962
		},
		{
			"buffer":0,
			"byteLength":58048,
			"byteOffset":100000,
			"target":34962
		},
		{
			"buffer":0,
			"byteLength":87072,
			"byteOffset":158048,
			"target":34962
		},
		{
			"buffer":0,
			"byteLength":74112,
			"byteOffset":245120,
			"target":34963
		},
		{
			"buffer":0,
			"byteLength":8100,
			"byteOffset":319232,
			"target":34962
		},
		{
			"buffer":0,
			"byteLength":5400,
			"byteOffset":327332,
			"target":34962
		},
		{
			"buffer":0,
			"byteLength":8100,
			"byteOffset":332732,
			"target":34962
		},
		{
			"buffer":0,
			"byteLength":5184,
			"byteOffset":340832,
			"target":34963
		}
	],
	"buffers":[
		{
			"byteLength":346016,
			"uri":"data:application/octet-stream;base64,"
		}
	]
}
