{
	"asset":{
		"generator":"Khronos glTF Blender I/O v3.5.30",
		"version":"2.0"
	},
	"scene":0,
	"scenes":[
		{
			"name":"Scene",
			"nodes":[
				0,
				1
			]
		}
	],
	"nodes":[
		{
			"mesh":0,
			"name":"Pipe_Line"
		},
		{
			"mesh":1,
			"name":"Pipe_Wheeel"
		}
	],
	"meshes":[
		{
			"name":"Cylinder",
			"primitives":[
				{
					"attributes":{
						"POSITION":0,
						"TEXCOORD_0":1,
						"NORMAL":2
					},
					"indices":3
				},
				{
					"attributes":{
						"POSITION":4,
						"TEXCOORD_0":5,
						"NORMAL":6
					},
					"indices":7
				}
			]
		},
		{
			"name":"Circle",
			"primitives":[
				{
					"attributes":{
						"POSITION":8,
						"TEXCOORD_0":9,
						"NORMAL":10
					},
					"indices":11
				}
			]
		}
	],
	"accessors":[
		{
			"bufferView":0,
			"componentType":5126,
			"count":725,
			"max":[
				0.3619524836540222,
				0.3619524836540222,
				0
			],
			"min":[
				-0.3619524836540222,
				-0.3619524836540222,
				-2
			],
			"type":"VEC3"
		},
		{
			"bufferView":1,
			"componentType":5126,
			"count":725,
			"type":"VEC2"
		},
		{
			"bufferView":2,
			"componentType":5126,
			"count":725,
			"type":"VEC3"
		},
		{
			"bufferView":3,
			"componentType":5123,
			"count":2880,
			"type":"SCALAR"
		},
		{
			"bufferView":4,
			"componentType":5126,
			"count":1174,
			"max":[
				0.710543692111969,
				0.3535873293876648,
				-0.03217022120952606
			],
			"min":[
				-0.3513249158859253,
				-0.3649316430091858,
				-1.972198486328125
			],
			"type":"VEC3"
		},
		{
			"bufferView":5,
			"componentType":5126,
			"count":1174,
			"type":"VEC2"
		},
		{
			"bufferView":6,
			"componentType":5126,
			"count":1174,
			"type":"VEC3"
		},
		{
			"bufferView":7,
			"componentType":5123,
			"count":4800,
			"type":"SCALAR"
		},
		{
			"bufferView":8,
			"componentType":5126,
			"count":568,
			"max":[
				0.2520960867404938,
				0.3725571036338806,
				-0.7351704835891724
			],
			"min":[
				-0.2520960867404938,
				0.2639533281326294,
				-1.2393625974655151
			],
			"type":"VEC3"
		},
		{
			"bufferView":9,
			"componentType":5126,
			"count":568,
			"type":"VEC2"
		},
		{
			"bufferView":10,
			"componentType":5126,
			"count":568,
			"type":"VEC3"
		},
		{
			"bufferView":11,
			"componentType":5123,
			"count":2190,
			"type":"SCALAR"
		}
	],
	"bufferViews":[
		{
			"buffer":0,
			"byteLength":8700,
			"byteOffset":0,
			"target":34962
		},
		{
			"buffer":0,
			"byteLength":5800,
			"byteOffset":8700,
			"target":34962
		},
		{
			"buffer":0,
			"byteLength":8700,
			"byteOffset":14500,
			"target":34962
		},
		{
			"buffer":0,
			"byteLength":5760,
			"byteOffset":23200,
			"target":34963
		},
		{
			"buffer":0,
			"byteLength":14088,
			"byteOffset":28960,
			"target":34962
		},
		{
			"buffer":0,
			"byteLength":9392,
			"byteOffset":43048,
			"target":34962
		},
		{
			"buffer":0,
			"byteLength":14088,
			"byteOffset":52440,
			"target":34962
		},
		{
			"buffer":0,
			"byteLength":9600,
			"byteOffset":66528,
			"target":34963
		},
		{
			"buffer":0,
			"byteLength":6816,
			"byteOffset":76128,
			"target":34962
		},
		{
			"buffer":0,
			"byteLength":4544,
			"byteOffset":82944,
			"target":34962
		},
		{
			"buffer":0,
			"byteLength":6816,
			"byteOffset":87488,
			"target":34962
		},
		{
			"buffer":0,
			"byteLength":4380,
			"byteOffset":94304,
			"target":34963
		}
	],
	"buffers":[
		{
			"byteLength":98684,
			"uri":"data:application/octet-stream;base64,"
		}
	]
}
