{
	"asset":{
		"generator":"Khronos glTF Blender I/O v3.5.30",
		"version":"2.0"
	},
	"scene":0,
	"scenes":[
		{
			"name":"Scene",
			"nodes":[
				0
			]
		}
	],
	"nodes":[
		{
			"mesh":0,
			"name":"Module_Straight"
		}
	],
	"meshes":[
		{
			"name":"Cube",
			"primitives":[
				{
					"attributes":{
						"POSITION":0,
						"TEXCOORD_0":1,
						"NORMAL":2
					},
					"indices":3
				},
				{
					"attributes":{
						"POSITION":4,
						"TEXCOORD_0":5,
						"NORMAL":6
					},
					"indices":7
				}
			]
		}
	],
	"accessors":[
		{
			"bufferView":0,
			"componentType":5126,
			"count":36,
			"max":[
				10,
				4.800000190734863,
				10
			],
			"min":[
				-10,
				0.20000000298023224,
				-10
			],
			"type":"VEC3"
		},
		{
			"bufferView":1,
			"componentType":5126,
			"count":36,
			"type":"VEC2"
		},
		{
			"bufferView":2,
			"componentType":5126,
			"count":36,
			"type":"VEC3"
		},
		{
			"bufferView":3,
			"componentType":5123,
			"count":84,
			"type":"SCALAR"
		},
		{
			"bufferView":4,
			"componentType":5126,
			"count":72,
			"max":[
				10,
				5,
				10
			],
			"min":[
				-10,
				0,
				-10
			],
			"type":"VEC3"
		},
		{
			"bufferView":5,
			"componentType":5126,
			"count":72,
			"type":"VEC2"
		},
		{
			"bufferView":6,
			"componentType":5126,
			"count":72,
			"type":"VEC3"
		},
		{
			"bufferView":7,
			"componentType":5123,
			"count":108,
			"type":"SCALAR"
		}
	],
	"bufferViews":[
		{
			"buffer":0,
			"byteLength":432,
			"byteOffset":0,
			"target":34962
		},
		{
			"buffer":0,
			"byteLength":288,
			"byteOffset":432,
			"target":34962
		},
		{
			"buffer":0,
			"byteLength":432,
			"byteOffset":720,
			"target":34962
		},
		{
			"buffer":0,
			"byteLength":168,
			"byteOffset":1152,
			"target":34963
		},
		{
			"buffer":0,
			"byteLength":864,
			"byteOffset":1320,
			"target":34962
		},
		{
			"buffer":0,
			"byteLength":576,
			"byteOffset":2184,
			"target":34962
		},
		{
			"buffer":0,
			"byteLength":864,
			"byteOffset":2760,
			"target":34962
		},
		{
			"buffer":0,
			"byteLength":216,
			"byteOffset":3624,
			"target":34963
		}
	],
	"buffers":[
		{
			"byteLength":3840,
			"uri":"data:application/octet-stream;base64,"
		}
	]
}
