{
	"asset":{
		"generator":"Khronos glTF Blender I/O v3.5.30",
		"version":"2.0"
	},
	"scene":0,
	"scenes":[
		{
			"name":"Scene",
			"nodes":[
				0
			]
		}
	],
	"nodes":[
		{
			"mesh":0,
			"name":"Module_Victory"
		}
	],
	"meshes":[
		{
			"name":"Cube.008",
			"primitives":[
				{
					"attributes":{
						"POSITION":0,
						"TEXCOORD_0":1,
						"NORMAL":2
					},
					"indices":3
				},
				{
					"attributes":{
						"POSITION":4,
						"TEXCOORD_0":5,
						"NORMAL":6
					},
					"indices":7
				}
			]
		}
	],
	"accessors":[
		{
			"bufferView":0,
			"componentType":5126,
			"count":68,
			"max":[
				5,
				2,
				0
			],
			"min":[
				-5,
				0.20000000298023224,
				-7
			],
			"type":"VEC3"
		},
		{
			"bufferView":1,
			"componentType":5126,
			"count":68,
			"type":"VEC2"
		},
		{
			"bufferView":2,
			"componentType":5126,
			"count":68,
			"type":"VEC3"
		},
		{
			"bufferView":3,
			"componentType":5123,
			"count":120,
			"type":"SCALAR"
		},
		{
			"bufferView":4,
			"componentType":5126,
			"count":40,
			"max":[
				5,
				0.20000000298023224,
				0.20000004768371582
			],
			"min":[
				-5,
				0,
				-7.199999809265137
			],
			"type":"VEC3"
		},
		{
			"bufferView":5,
			"componentType":5126,
			"count":40,
			"type":"VEC2"
		},
		{
			"bufferView":6,
			"componentType":5126,
			"count":40,
			"type":"VEC3"
		},
		{
			"bufferView":7,
			"componentType":5123,
			"count":60,
			"type":"SCALAR"
		}
	],
	"bufferViews":[
		{
			"buffer":0,
			"byteLength":816,
			"byteOffset":0,
			"target":34962
		},
		{
			"buffer":0,
			"byteLength":544,
			"byteOffset":816,
			"target":34962
		},
		{
			"buffer":0,
			"byteLength":816,
			"byteOffset":1360,
			"target":34962
		},
		{
			"buffer":0,
			"byteLength":240,
			"byteOffset":2176,
			"target":34963
		},
		{
			"buffer":0,
			"byteLength":480,
			"byteOffset":2416,
			"target":34962
		},
		{
			"buffer":0,
			"byteLength":320,
			"byteOffset":2896,
			"target":34962
		},
		{
			"buffer":0,
			"byteLength":480,
			"byteOffset":3216,
			"target":34962
		},
		{
			"buffer":0,
			"byteLength":120,
			"byteOffset":3696,
			"target":34963
		}
	],
	"buffers":[
		{
			"byteLength":3816,
			"uri":"data:application/octet-stream;base64,"
		}
	]
}
