{
	"asset":{
		"generator":"Khronos glTF Blender I/O v3.5.30",
		"version":"2.0"
	},
	"scene":0,
	"scenes":[
		{
			"name":"Scene",
			"nodes":[
				0
			]
		}
	],
	"nodes":[
		{
			"mesh":0,
			"name":"Module_Straight"
		}
	],
	"meshes":[
		{
			"name":"Cube",
			"primitives":[
				{
					"attributes":{
						"POSITION":0,
						"TEXCOORD_0":1,
						"NORMAL":2
					},
					"indices":3
				},
				{
					"attributes":{
						"POSITION":4,
						"TEXCOORD_0":5,
						"NORMAL":6
					},
					"indices":7
				}
			]
		}
	],
	"accessors":[
		{
			"bufferView":0,
			"componentType":5126,
			"count":36,
			"max":[
				10,
				5,
				10
			],
			"min":[
				-10,
				0,
				-10
			],
			"type":"VEC3"
		},
		{
			"bufferView":1,
			"componentType":5126,
			"count":36,
			"type":"VEC2"
		},
		{
			"bufferView":2,
			"componentType":5126,
			"count":36,
			"type":"VEC3"
		},
		{
			"bufferView":3,
			"componentType":5123,
			"count":84,
			"type":"SCALAR"
		},
		{
			"bufferView":4,
			"componentType":5126,
			"count":8,
			"max":[
				10,
				0,
				10
			],
			"min":[
				-10,
				0,
				-10
			],
			"type":"VEC3"
		},
		{
			"bufferView":5,
			"componentType":5126,
			"count":8,
			"type":"VEC2"
		},
		{
			"bufferView":6,
			"componentType":5126,
			"count":8,
			"type":"VEC3"
		},
		{
			"bufferView":7,
			"componentType":5123,
			"count":18,
			"type":"SCALAR"
		}
	],
	"bufferViews":[
		{
			"buffer":0,
			"byteLength":432,
			"byteOffset":0,
			"target":34962
		},
		{
			"buffer":0,
			"byteLength":288,
			"byteOffset":432,
			"target":34962
		},
		{
			"buffer":0,
			"byteLength":432,
			"byteOffset":720,
			"target":34962
		},
		{
			"buffer":0,
			"byteLength":168,
			"byteOffset":1152,
			"target":34963
		},
		{
			"buffer":0,
			"byteLength":96,
			"byteOffset":1320,
			"target":34962
		},
		{
			"buffer":0,
			"byteLength":64,
			"byteOffset":1416,
			"target":34962
		},
		{
			"buffer":0,
			"byteLength":96,
			"byteOffset":1480,
			"target":34962
		},
		{
			"buffer":0,
			"byteLength":36,
			"byteOffset":1576,
			"target":34963
		}
	],
	"buffers":[
		{
			"byteLength":1612,
			"uri":"data:application/octet-stream;base64,"
		}
	]
}
