{
	"asset":{
		"generator":"Khronos glTF Blender I/O v3.5.30",
		"version":"2.0"
	},
	"scene":0,
	"scenes":[
		{
			"name":"Scene",
			"nodes":[
				0
			]
		}
	],
	"nodes":[
		{
			"mesh":0,
			"name":"Module_LVL03"
		}
	],
	"meshes":[
		{
			"name":"Cube.004",
			"primitives":[
				{
					"attributes":{
						"POSITION":0,
						"TEXCOORD_0":1,
						"NORMAL":2
					},
					"indices":3
				}
			]
		}
	],
	"accessors":[
		{
			"bufferView":0,
			"componentType":5126,
			"count":179,
			"max":[
				10,
				5,
				10
			],
			"min":[
				-10,
				0,
				-10
			],
			"type":"VEC3"
		},
		{
			"bufferView":1,
			"componentType":5126,
			"count":179,
			"type":"VEC2"
		},
		{
			"bufferView":2,
			"componentType":5126,
			"count":179,
			"type":"VEC3"
		},
		{
			"bufferView":3,
			"componentType":5123,
			"count":402,
			"type":"SCALAR"
		}
	],
	"bufferViews":[
		{
			"buffer":0,
			"byteLength":2148,
			"byteOffset":0,
			"target":34962
		},
		{
			"buffer":0,
			"byteLength":1432,
			"byteOffset":2148,
			"target":34962
		},
		{
			"buffer":0,
			"byteLength":2148,
			"byteOffset":3580,
			"target":34962
		},
		{
			"buffer":0,
			"byteLength":804,
			"byteOffset":5728,
			"target":34963
		}
	],
	"buffers":[
		{
			"byteLength":6532,
			"uri":"data:application/octet-stream;base64,"
		}
	]
}
