{
	"asset":{
		"generator":"Khronos glTF Blender I/O v3.5.30",
		"version":"2.0"
	},
	"scene":0,
	"scenes":[
		{
			"name":"Scene",
			"nodes":[
				0
			]
		}
	],
	"nodes":[
		{
			"mesh":0,
			"name":"Module_LVL02"
		}
	],
	"meshes":[
		{
			"name":"Cube.005",
			"primitives":[
				{
					"attributes":{
						"POSITION":0,
						"TEXCOORD_0":1,
						"NORMAL":2
					},
					"indices":3
				},
				{
					"attributes":{
						"POSITION":4,
						"TEXCOORD_0":5,
						"NORMAL":6
					},
					"indices":7
				},
				{
					"attributes":{
						"POSITION":8,
						"TEXCOORD_0":9,
						"NORMAL":10
					},
					"indices":11
				}
			]
		}
	],
	"accessors":[
		{
			"bufferView":0,
			"componentType":5126,
			"count":178,
			"max":[
				10,
				5,
				10
			],
			"min":[
				-10,
				0,
				-10
			],
			"type":"VEC3"
		},
		{
			"bufferView":1,
			"componentType":5126,
			"count":178,
			"type":"VEC2"
		},
		{
			"bufferView":2,
			"componentType":5126,
			"count":178,
			"type":"VEC3"
		},
		{
			"bufferView":3,
			"componentType":5123,
			"count":390,
			"type":"SCALAR"
		},
		{
			"bufferView":4,
			"componentType":5126,
			"count":34,
			"max":[
				10,
				4,
				10
			],
			"min":[
				-7,
				0,
				5
			],
			"type":"VEC3"
		},
		{
			"bufferView":5,
			"componentType":5126,
			"count":34,
			"type":"VEC2"
		},
		{
			"bufferView":6,
			"componentType":5126,
			"count":34,
			"type":"VEC3"
		},
		{
			"bufferView":7,
			"componentType":5123,
			"count":60,
			"type":"SCALAR"
		},
		{
			"bufferView":8,
			"componentType":5126,
			"count":36,
			"max":[
				10,
				5,
				10
			],
			"min":[
				-10,
				5,
				-10
			],
			"type":"VEC3"
		},
		{
			"bufferView":9,
			"componentType":5126,
			"count":36,
			"type":"VEC2"
		},
		{
			"bufferView":10,
			"componentType":5126,
			"count":36,
			"type":"VEC3"
		},
		{
			"bufferView":11,
			"componentType":5123,
			"count":87,
			"type":"SCALAR"
		}
	],
	"bufferViews":[
		{
			"buffer":0,
			"byteLength":2136,
			"byteOffset":0,
			"target":34962
		},
		{
			"buffer":0,
			"byteLength":1424,
			"byteOffset":2136,
			"target":34962
		},
		{
			"buffer":0,
			"byteLength":2136,
			"byteOffset":3560,
			"target":34962
		},
		{
			"buffer":0,
			"byteLength":780,
			"byteOffset":5696,
			"target":34963
		},
		{
			"buffer":0,
			"byteLength":408,
			"byteOffset":6476,
			"target":34962
		},
		{
			"buffer":0,
			"byteLength":272,
			"byteOffset":6884,
			"target":34962
		},
		{
			"buffer":0,
			"byteLength":408,
			"byteOffset":7156,
			"target":34962
		},
		{
			"buffer":0,
			"byteLength":120,
			"byteOffset":7564,
			"target":34963
		},
		{
			"buffer":0,
			"byteLength":432,
			"byteOffset":7684,
			"target":34962
		},
		{
			"buffer":0,
			"byteLength":288,
			"byteOffset":8116,
			"target":34962
		},
		{
			"buffer":0,
			"byteLength":432,
			"byteOffset":8404,
			"target":34962
		},
		{
			"buffer":0,
			"byteLength":174,
			"byteOffset":8836,
			"target":34963
		}
	],
	"buffers":[
		{
			"byteLength":9012,
			"uri":"data:application/octet-stream;base64,"
		}
	]
}
