{
	"asset":{
		"generator":"Khronos glTF Blender I/O v3.5.30",
		"version":"2.0"
	},
	"scene":0,
	"scenes":[
		{
			"name":"Scene",
			"nodes":[
				0
			]
		}
	],
	"nodes":[
		{
			"mesh":0,
			"name":"Module_Airlock"
		}
	],
	"meshes":[
		{
			"name":"Cube.001",
			"primitives":[
				{
					"attributes":{
						"POSITION":0,
						"TEXCOORD_0":1,
						"NORMAL":2
					},
					"indices":3
				},
				{
					"attributes":{
						"POSITION":4,
						"TEXCOORD_0":5,
						"NORMAL":6
					},
					"indices":7
				},
				{
					"attributes":{
						"POSITION":8,
						"TEXCOORD_0":9,
						"NORMAL":10
					},
					"indices":11
				}
			]
		}
	],
	"accessors":[
		{
			"bufferView":0,
			"componentType":5126,
			"count":132,
			"max":[
				4.5,
				5,
				0
			],
			"min":[
				-4.5,
				0,
				-9
			],
			"type":"VEC3"
		},
		{
			"bufferView":1,
			"componentType":5126,
			"count":132,
			"type":"VEC2"
		},
		{
			"bufferView":2,
			"componentType":5126,
			"count":132,
			"type":"VEC3"
		},
		{
			"bufferView":3,
			"componentType":5123,
			"count":258,
			"type":"SCALAR"
		},
		{
			"bufferView":4,
			"componentType":5126,
			"count":20,
			"max":[
				4.5,
				0,
				0
			],
			"min":[
				-4.5,
				0,
				-9
			],
			"type":"VEC3"
		},
		{
			"bufferView":5,
			"componentType":5126,
			"count":20,
			"type":"VEC2"
		},
		{
			"bufferView":6,
			"componentType":5126,
			"count":20,
			"type":"VEC3"
		},
		{
			"bufferView":7,
			"componentType":5123,
			"count":54,
			"type":"SCALAR"
		},
		{
			"bufferView":8,
			"componentType":5126,
			"count":24,
			"max":[
				2.5,
				0.20000000298023224,
				0
			],
			"min":[
				-2.5,
				0,
				-9
			],
			"type":"VEC3"
		},
		{
			"bufferView":9,
			"componentType":5126,
			"count":24,
			"type":"VEC2"
		},
		{
			"bufferView":10,
			"componentType":5126,
			"count":24,
			"type":"VEC3"
		},
		{
			"bufferView":11,
			"componentType":5123,
			"count":36,
			"type":"SCALAR"
		}
	],
	"bufferViews":[
		{
			"buffer":0,
			"byteLength":1584,
			"byteOffset":0,
			"target":34962
		},
		{
			"buffer":0,
			"byteLength":1056,
			"byteOffset":1584,
			"target":34962
		},
		{
			"buffer":0,
			"byteLength":1584,
			"byteOffset":2640,
			"target":34962
		},
		{
			"buffer":0,
			"byteLength":516,
			"byteOffset":4224,
			"target":34963
		},
		{
			"buffer":0,
			"byteLength":240,
			"byteOffset":4740,
			"target":34962
		},
		{
			"buffer":0,
			"byteLength":160,
			"byteOffset":4980,
			"target":34962
		},
		{
			"buffer":0,
			"byteLength":240,
			"byteOffset":5140,
			"target":34962
		},
		{
			"buffer":0,
			"byteLength":108,
			"byteOffset":5380,
			"target":34963
		},
		{
			"buffer":0,
			"byteLength":288,
			"byteOffset":5488,
			"target":34962
		},
		{
			"buffer":0,
			"byteLength":192,
			"byteOffset":5776,
			"target":34962
		},
		{
			"buffer":0,
			"byteLength":288,
			"byteOffset":5968,
			"target":34962
		},
		{
			"buffer":0,
			"byteLength":72,
			"byteOffset":6256,
			"target":34963
		}
	],
	"buffers":[
		{
			"byteLength":6328,
			"uri":"data:application/octet-stream;base64,"
		}
	]
}
