{
	"asset":{
		"generator":"Khronos glTF Blender I/O v3.5.30",
		"version":"2.0"
	},
	"scene":0,
	"scenes":[
		{
			"name":"Scene",
			"nodes":[
				0
			]
		}
	],
	"nodes":[
		{
			"mesh":0,
			"name":"Module_LVL04"
		}
	],
	"meshes":[
		{
			"name":"Cube.006",
			"primitives":[
				{
					"attributes":{
						"POSITION":0,
						"TEXCOORD_0":1,
						"NORMAL":2
					},
					"indices":3
				},
				{
					"attributes":{
						"POSITION":4,
						"TEXCOORD_0":5,
						"NORMAL":6
					},
					"indices":7
				},
				{
					"attributes":{
						"POSITION":8,
						"TEXCOORD_0":9,
						"NORMAL":10
					},
					"indices":11
				}
			]
		}
	],
	"accessors":[
		{
			"bufferView":0,
			"componentType":5126,
			"count":243,
			"max":[
				10,
				5,
				10
			],
			"min":[
				-10,
				-4.76837158203125e-07,
				-10
			],
			"type":"VEC3"
		},
		{
			"bufferView":1,
			"componentType":5126,
			"count":243,
			"type":"VEC2"
		},
		{
			"bufferView":2,
			"componentType":5126,
			"count":243,
			"type":"VEC3"
		},
		{
			"bufferView":3,
			"componentType":5123,
			"count":498,
			"type":"SCALAR"
		},
		{
			"bufferView":4,
			"componentType":5126,
			"count":36,
			"max":[
				8,
				4,
				7
			],
			"min":[
				-10,
				0,
				-10
			],
			"type":"VEC3"
		},
		{
			"bufferView":5,
			"componentType":5126,
			"count":36,
			"type":"VEC2"
		},
		{
			"bufferView":6,
			"componentType":5126,
			"count":36,
			"type":"VEC3"
		},
		{
			"bufferView":7,
			"componentType":5123,
			"count":66,
			"type":"SCALAR"
		},
		{
			"bufferView":8,
			"componentType":5126,
			"count":54,
			"max":[
				10,
				5,
				10
			],
			"min":[
				-10,
				4.999999523162842,
				-10
			],
			"type":"VEC3"
		},
		{
			"bufferView":9,
			"componentType":5126,
			"count":54,
			"type":"VEC2"
		},
		{
			"bufferView":10,
			"componentType":5126,
			"count":54,
			"type":"VEC3"
		},
		{
			"bufferView":11,
			"componentType":5123,
			"count":141,
			"type":"SCALAR"
		}
	],
	"bufferViews":[
		{
			"buffer":0,
			"byteLength":2916,
			"byteOffset":0,
			"target":34962
		},
		{
			"buffer":0,
			"byteLength":1944,
			"byteOffset":2916,
			"target":34962
		},
		{
			"buffer":0,
			"byteLength":2916,
			"byteOffset":4860,
			"target":34962
		},
		{
			"buffer":0,
			"byteLength":996,
			"byteOffset":7776,
			"target":34963
		},
		{
			"buffer":0,
			"byteLength":432,
			"byteOffset":8772,
			"target":34962
		},
		{
			"buffer":0,
			"byteLength":288,
			"byteOffset":9204,
			"target":34962
		},
		{
			"buffer":0,
			"byteLength":432,
			"byteOffset":9492,
			"target":34962
		},
		{
			"buffer":0,
			"byteLength":132,
			"byteOffset":9924,
			"target":34963
		},
		{
			"buffer":0,
			"byteLength":648,
			"byteOffset":10056,
			"target":34962
		},
		{
			"buffer":0,
			"byteLength":432,
			"byteOffset":10704,
			"target":34962
		},
		{
			"buffer":0,
			"byteLength":648,
			"byteOffset":11136,
			"target":34962
		},
		{
			"buffer":0,
			"byteLength":282,
			"byteOffset":11784,
			"target":34963
		}
	],
	"buffers":[
		{
			"byteLength":12068,
			"uri":"data:application/octet-stream;base64,"
		}
	]
}
