{
	"asset":{
		"generator":"Khronos glTF Blender I/O v3.5.30",
		"version":"2.0"
	},
	"scene":0,
	"scenes":[
		{
			"name":"Scene",
			"nodes":[
				0
			]
		}
	],
	"nodes":[
		{
			"mesh":0,
			"name":"Module_Turn"
		}
	],
	"meshes":[
		{
			"name":"Cube.002",
			"primitives":[
				{
					"attributes":{
						"POSITION":0,
						"TEXCOORD_0":1,
						"NORMAL":2
					},
					"indices":3
				},
				{
					"attributes":{
						"POSITION":4,
						"TEXCOORD_0":5,
						"NORMAL":6
					},
					"indices":7
				},
				{
					"attributes":{
						"POSITION":8,
						"TEXCOORD_0":9,
						"NORMAL":10
					},
					"indices":11
				}
			]
		}
	],
	"accessors":[
		{
			"bufferView":0,
			"componentType":5126,
			"count":48,
			"max":[
				10,
				5,
				10
			],
			"min":[
				-10,
				0,
				-10
			],
			"type":"VEC3"
		},
		{
			"bufferView":1,
			"componentType":5126,
			"count":48,
			"type":"VEC2"
		},
		{
			"bufferView":2,
			"componentType":5126,
			"count":48,
			"type":"VEC3"
		},
		{
			"bufferView":3,
			"componentType":5123,
			"count":132,
			"type":"SCALAR"
		},
		{
			"bufferView":4,
			"componentType":5126,
			"count":16,
			"max":[
				10,
				0,
				10
			],
			"min":[
				-10,
				0,
				-10
			],
			"type":"VEC3"
		},
		{
			"bufferView":5,
			"componentType":5126,
			"count":16,
			"type":"VEC2"
		},
		{
			"bufferView":6,
			"componentType":5126,
			"count":16,
			"type":"VEC3"
		},
		{
			"bufferView":7,
			"componentType":5123,
			"count":54,
			"type":"SCALAR"
		},
		{
			"bufferView":8,
			"componentType":5126,
			"count":32,
			"max":[
				10,
				15,
				10
			],
			"min":[
				-10,
				5,
				-10
			],
			"type":"VEC3"
		},
		{
			"bufferView":9,
			"componentType":5126,
			"count":32,
			"type":"VEC2"
		},
		{
			"bufferView":10,
			"componentType":5126,
			"count":32,
			"type":"VEC3"
		},
		{
			"bufferView":11,
			"componentType":5123,
			"count":72,
			"type":"SCALAR"
		}
	],
	"bufferViews":[
		{
			"buffer":0,
			"byteLength":576,
			"byteOffset":0,
			"target":34962
		},
		{
			"buffer":0,
			"byteLength":384,
			"byteOffset":576,
			"target":34962
		},
		{
			"buffer":0,
			"byteLength":576,
			"byteOffset":960,
			"target":34962
		},
		{
			"buffer":0,
			"byteLength":264,
			"byteOffset":1536,
			"target":34963
		},
		{
			"buffer":0,
			"byteLength":192,
			"byteOffset":1800,
			"target":34962
		},
		{
			"buffer":0,
			"byteLength":128,
			"byteOffset":1992,
			"target":34962
		},
		{
			"buffer":0,
			"byteLength":192,
			"byteOffset":2120,
			"target":34962
		},
		{
			"buffer":0,
			"byteLength":108,
			"byteOffset":2312,
			"target":34963
		},
		{
			"buffer":0,
			"byteLength":384,
			"byteOffset":2420,
			"target":34962
		},
		{
			"buffer":0,
			"byteLength":256,
			"byteOffset":2804,
			"target":34962
		},
		{
			"buffer":0,
			"byteLength":384,
			"byteOffset":3060,
			"target":34962
		},
		{
			"buffer":0,
			"byteLength":144,
			"byteOffset":3444,
			"target":34963
		}
	],
	"buffers":[
		{
			"byteLength":3588,
			"uri":"data:application/octet-stream;base64,"
		}
	]
}
