{
	"asset":{
		"generator":"Khronos glTF Blender I/O v3.5.30",
		"version":"2.0"
	},
	"scene":0,
	"scenes":[
		{
			"name":"Scene",
			"nodes":[
				0
			]
		}
	],
	"nodes":[
		{
			"mesh":0,
			"name":"Module_LVL04"
		}
	],
	"meshes":[
		{
			"name":"Cube.006",
			"primitives":[
				{
					"attributes":{
						"POSITION":0,
						"TEXCOORD_0":1,
						"NORMAL":2
					},
					"indices":3
				},
				{
					"attributes":{
						"POSITION":4,
						"TEXCOORD_0":5,
						"NORMAL":6
					},
					"indices":7
				},
				{
					"attributes":{
						"POSITION":8,
						"TEXCOORD_0":9,
						"NORMAL":10
					},
					"indices":11
				}
			]
		}
	],
	"accessors":[
		{
			"bufferView":0,
			"componentType":5126,
			"count":263,
			"max":[
				10,
				5,
				10
			],
			"min":[
				-10,
				-4.76837158203125e-07,
				-10
			],
			"type":"VEC3"
		},
		{
			"bufferView":1,
			"componentType":5126,
			"count":263,
			"type":"VEC2"
		},
		{
			"bufferView":2,
			"componentType":5126,
			"count":263,
			"type":"VEC3"
		},
		{
			"bufferView":3,
			"componentType":5123,
			"count":528,
			"type":"SCALAR"
		},
		{
			"bufferView":4,
			"componentType":5126,
			"count":36,
			"max":[
				8,
				4,
				7
			],
			"min":[
				-10,
				0,
				-10
			],
			"type":"VEC3"
		},
		{
			"bufferView":5,
			"componentType":5126,
			"count":36,
			"type":"VEC2"
		},
		{
			"bufferView":6,
			"componentType":5126,
			"count":36,
			"type":"VEC3"
		},
		{
			"bufferView":7,
			"componentType":5123,
			"count":66,
			"type":"SCALAR"
		},
		{
			"bufferView":8,
			"componentType":5126,
			"count":64,
			"max":[
				10,
				5,
				10
			],
			"min":[
				-10,
				4.999999523162842,
				-10
			],
			"type":"VEC3"
		},
		{
			"bufferView":9,
			"componentType":5126,
			"count":64,
			"type":"VEC2"
		},
		{
			"bufferView":10,
			"componentType":5126,
			"count":64,
			"type":"VEC3"
		},
		{
			"bufferView":11,
			"componentType":5123,
			"count":171,
			"type":"SCALAR"
		}
	],
	"bufferViews":[
		{
			"buffer":0,
			"byteLength":3156,
			"byteOffset":0,
			"target":34962
		},
		{
			"buffer":0,
			"byteLength":2104,
			"byteOffset":3156,
			"target":34962
		},
		{
			"buffer":0,
			"byteLength":3156,
			"byteOffset":5260,
			"target":34962
		},
		{
			"buffer":0,
			"byteLength":1056,
			"byteOffset":8416,
			"target":34963
		},
		{
			"buffer":0,
			"byteLength":432,
			"byteOffset":9472,
			"target":34962
		},
		{
			"buffer":0,
			"byteLength":288,
			"byteOffset":9904,
			"target":34962
		},
		{
			"buffer":0,
			"byteLength":432,
			"byteOffset":10192,
			"target":34962
		},
		{
			"buffer":0,
			"byteLength":132,
			"byteOffset":10624,
			"target":34963
		},
		{
			"buffer":0,
			"byteLength":768,
			"byteOffset":10756,
			"target":34962
		},
		{
			"buffer":0,
			"byteLength":512,
			"byteOffset":11524,
			"target":34962
		},
		{
			"buffer":0,
			"byteLength":768,
			"byteOffset":12036,
			"target":34962
		},
		{
			"buffer":0,
			"byteLength":342,
			"byteOffset":12804,
			"target":34963
		}
	],
	"buffers":[
		{
			"byteLength":13148,
			"uri":"data:application/octet-stream;base64,"
		}
	]
}
