{
	"asset":{
		"generator":"Khronos glTF Blender I/O v3.5.30",
		"version":"2.0"
	},
	"scene":0,
	"scenes":[
		{
			"name":"Scene",
			"nodes":[
				0
			]
		}
	],
	"nodes":[
		{
			"mesh":0,
			"name":"Module_LVL01"
		}
	],
	"meshes":[
		{
			"name":"Cube.003",
			"primitives":[
				{
					"attributes":{
						"POSITION":0,
						"TEXCOORD_0":1,
						"NORMAL":2
					},
					"indices":3
				},
				{
					"attributes":{
						"POSITION":4,
						"TEXCOORD_0":5,
						"NORMAL":6
					},
					"indices":7
				},
				{
					"attributes":{
						"POSITION":8,
						"TEXCOORD_0":9,
						"NORMAL":10
					},
					"indices":11
				}
			]
		}
	],
	"accessors":[
		{
			"bufferView":0,
			"componentType":5126,
			"count":46,
			"max":[
				10,
				5,
				10
			],
			"min":[
				-10,
				0,
				-10
			],
			"type":"VEC3"
		},
		{
			"bufferView":1,
			"componentType":5126,
			"count":46,
			"type":"VEC2"
		},
		{
			"bufferView":2,
			"componentType":5126,
			"count":46,
			"type":"VEC3"
		},
		{
			"bufferView":3,
			"componentType":5123,
			"count":78,
			"type":"SCALAR"
		},
		{
			"bufferView":4,
			"componentType":5126,
			"count":5,
			"max":[
				8.000000953674316,
				1.25,
				10
			],
			"min":[
				5,
				1.25,
				-1
			],
			"type":"VEC3"
		},
		{
			"bufferView":5,
			"componentType":5126,
			"count":5,
			"type":"VEC2"
		},
		{
			"bufferView":6,
			"componentType":5126,
			"count":5,
			"type":"VEC3"
		},
		{
			"bufferView":7,
			"componentType":5123,
			"count":9,
			"type":"SCALAR"
		},
		{
			"bufferView":8,
			"componentType":5126,
			"count":16,
			"max":[
				10,
				5,
				10
			],
			"min":[
				-10,
				5,
				-10
			],
			"type":"VEC3"
		},
		{
			"bufferView":9,
			"componentType":5126,
			"count":16,
			"type":"VEC2"
		},
		{
			"bufferView":10,
			"componentType":5126,
			"count":16,
			"type":"VEC3"
		},
		{
			"bufferView":11,
			"componentType":5123,
			"count":36,
			"type":"SCALAR"
		}
	],
	"bufferViews":[
		{
			"buffer":0,
			"byteLength":552,
			"byteOffset":0,
			"target":34962
		},
		{
			"buffer":0,
			"byteLength":368,
			"byteOffset":552,
			"target":34962
		},
		{
			"buffer":0,
			"byteLength":552,
			"byteOffset":920,
			"target":34962
		},
		{
			"buffer":0,
			"byteLength":156,
			"byteOffset":1472,
			"target":34963
		},
		{
			"buffer":0,
			"byteLength":60,
			"byteOffset":1628,
			"target":34962
		},
		{
			"buffer":0,
			"byteLength":40,
			"byteOffset":1688,
			"target":34962
		},
		{
			"buffer":0,
			"byteLength":60,
			"byteOffset":1728,
			"target":34962
		},
		{
			"buffer":0,
			"byteLength":18,
			"byteOffset":1788,
			"target":34963
		},
		{
			"buffer":0,
			"byteLength":192,
			"byteOffset":1808,
			"target":34962
		},
		{
			"buffer":0,
			"byteLength":128,
			"byteOffset":2000,
			"target":34962
		},
		{
			"buffer":0,
			"byteLength":192,
			"byteOffset":2128,
			"target":34962
		},
		{
			"buffer":0,
			"byteLength":72,
			"byteOffset":2320,
			"target":34963
		}
	],
	"buffers":[
		{
			"byteLength":2392,
			"uri":"data:application/octet-stream;base64,"
		}
	]
}
