{
	"asset":{
		"generator":"Khronos glTF Blender I/O v3.5.30",
		"version":"2.0"
	},
	"scene":0,
	"scenes":[
		{
			"name":"Scene",
			"nodes":[
				0
			]
		}
	],
	"nodes":[
		{
			"mesh":0,
			"name":"Module_Airlock"
		}
	],
	"meshes":[
		{
			"name":"Cube.001",
			"primitives":[
				{
					"attributes":{
						"POSITION":0,
						"TEXCOORD_0":1,
						"NORMAL":2
					},
					"indices":3
				},
				{
					"attributes":{
						"POSITION":4,
						"TEXCOORD_0":5,
						"NORMAL":6
					},
					"indices":7
				},
				{
					"attributes":{
						"POSITION":8,
						"TEXCOORD_0":9,
						"NORMAL":10
					},
					"indices":11
				}
			]
		}
	],
	"accessors":[
		{
			"bufferView":0,
			"componentType":5126,
			"count":84,
			"max":[
				4.5,
				5,
				0
			],
			"min":[
				-4.5,
				0,
				-9
			],
			"type":"VEC3"
		},
		{
			"bufferView":1,
			"componentType":5126,
			"count":84,
			"type":"VEC2"
		},
		{
			"bufferView":2,
			"componentType":5126,
			"count":84,
			"type":"VEC3"
		},
		{
			"bufferView":3,
			"componentType":5123,
			"count":132,
			"type":"SCALAR"
		},
		{
			"bufferView":4,
			"componentType":5126,
			"count":40,
			"max":[
				4.5,
				4,
				0
			],
			"min":[
				-4.5,
				0,
				-9
			],
			"type":"VEC3"
		},
		{
			"bufferView":5,
			"componentType":5126,
			"count":40,
			"type":"VEC2"
		},
		{
			"bufferView":6,
			"componentType":5126,
			"count":40,
			"type":"VEC3"
		},
		{
			"bufferView":7,
			"componentType":5123,
			"count":102,
			"type":"SCALAR"
		},
		{
			"bufferView":8,
			"componentType":5126,
			"count":24,
			"max":[
				10,
				5,
				0.2999999523162842
			],
			"min":[
				-10,
				5,
				-9.300000190734863
			],
			"type":"VEC3"
		},
		{
			"bufferView":9,
			"componentType":5126,
			"count":24,
			"type":"VEC2"
		},
		{
			"bufferView":10,
			"componentType":5126,
			"count":24,
			"type":"VEC3"
		},
		{
			"bufferView":11,
			"componentType":5123,
			"count":48,
			"type":"SCALAR"
		}
	],
	"bufferViews":[
		{
			"buffer":0,
			"byteLength":1008,
			"byteOffset":0,
			"target":34962
		},
		{
			"buffer":0,
			"byteLength":672,
			"byteOffset":1008,
			"target":34962
		},
		{
			"buffer":0,
			"byteLength":1008,
			"byteOffset":1680,
			"target":34962
		},
		{
			"buffer":0,
			"byteLength":264,
			"byteOffset":2688,
			"target":34963
		},
		{
			"buffer":0,
			"byteLength":480,
			"byteOffset":2952,
			"target":34962
		},
		{
			"buffer":0,
			"byteLength":320,
			"byteOffset":3432,
			"target":34962
		},
		{
			"buffer":0,
			"byteLength":480,
			"byteOffset":3752,
			"target":34962
		},
		{
			"buffer":0,
			"byteLength":204,
			"byteOffset":4232,
			"target":34963
		},
		{
			"buffer":0,
			"byteLength":288,
			"byteOffset":4436,
			"target":34962
		},
		{
			"buffer":0,
			"byteLength":192,
			"byteOffset":4724,
			"target":34962
		},
		{
			"buffer":0,
			"byteLength":288,
			"byteOffset":4916,
			"target":34962
		},
		{
			"buffer":0,
			"byteLength":96,
			"byteOffset":5204,
			"target":34963
		}
	],
	"buffers":[
		{
			"byteLength":5300,
			"uri":"data:application/octet-stream;base64,"
		}
	]
}
