{
	"asset":{
		"generator":"Khronos glTF Blender I/O v3.5.30",
		"version":"2.0"
	},
	"scene":0,
	"scenes":[
		{
			"name":"Scene",
			"nodes":[
				0
			]
		}
	],
	"nodes":[
		{
			"mesh":0,
			"name":"Module_DeadEnd"
		}
	],
	"meshes":[
		{
			"name":"Cube.007",
			"primitives":[
				{
					"attributes":{
						"POSITION":0,
						"TEXCOORD_0":1,
						"NORMAL":2
					},
					"indices":3
				},
				{
					"attributes":{
						"POSITION":4,
						"TEXCOORD_0":5,
						"NORMAL":6
					},
					"indices":7
				}
			]
		}
	],
	"accessors":[
		{
			"bufferView":0,
			"componentType":5126,
			"count":28,
			"max":[
				5,
				4.800000190734863,
				3
			],
			"min":[
				-5,
				0.20000000298023224,
				-10
			],
			"type":"VEC3"
		},
		{
			"bufferView":1,
			"componentType":5126,
			"count":28,
			"type":"VEC2"
		},
		{
			"bufferView":2,
			"componentType":5126,
			"count":28,
			"type":"VEC3"
		},
		{
			"bufferView":3,
			"componentType":5123,
			"count":42,
			"type":"SCALAR"
		},
		{
			"bufferView":4,
			"componentType":5126,
			"count":56,
			"max":[
				5,
				5,
				3
			],
			"min":[
				-5,
				0,
				-10
			],
			"type":"VEC3"
		},
		{
			"bufferView":5,
			"componentType":5126,
			"count":56,
			"type":"VEC2"
		},
		{
			"bufferView":6,
			"componentType":5126,
			"count":56,
			"type":"VEC3"
		},
		{
			"bufferView":7,
			"componentType":5123,
			"count":84,
			"type":"SCALAR"
		}
	],
	"bufferViews":[
		{
			"buffer":0,
			"byteLength":336,
			"byteOffset":0,
			"target":34962
		},
		{
			"buffer":0,
			"byteLength":224,
			"byteOffset":336,
			"target":34962
		},
		{
			"buffer":0,
			"byteLength":336,
			"byteOffset":560,
			"target":34962
		},
		{
			"buffer":0,
			"byteLength":84,
			"byteOffset":896,
			"target":34963
		},
		{
			"buffer":0,
			"byteLength":672,
			"byteOffset":980,
			"target":34962
		},
		{
			"buffer":0,
			"byteLength":448,
			"byteOffset":1652,
			"target":34962
		},
		{
			"buffer":0,
			"byteLength":672,
			"byteOffset":2100,
			"target":34962
		},
		{
			"buffer":0,
			"byteLength":168,
			"byteOffset":2772,
			"target":34963
		}
	],
	"buffers":[
		{
			"byteLength":2940,
			"uri":"data:application/octet-stream;base64,"
		}
	]
}
