{
	"asset":{
		"generator":"Khronos glTF Blender I/O v3.5.30",
		"version":"2.0"
	},
	"scene":0,
	"scenes":[
		{
			"name":"Scene",
			"nodes":[
				0
			]
		}
	],
	"nodes":[
		{
			"mesh":0,
			"name":"Wall_Light"
		}
	],
	"meshes":[
		{
			"name":"Cube",
			"primitives":[
				{
					"attributes":{
						"POSITION":0,
						"TEXCOORD_0":1,
						"NORMAL":2
					},
					"indices":3
				},
				{
					"attributes":{
						"POSITION":4,
						"TEXCOORD_0":5,
						"NORMAL":6
					},
					"indices":7
				},
				{
					"attributes":{
						"POSITION":8,
						"TEXCOORD_0":9,
						"NORMAL":10
					},
					"indices":11
				}
			]
		}
	],
	"accessors":[
		{
			"bufferView":0,
			"componentType":5126,
			"count":274,
			"max":[
				2,
				1,
				0.18708829581737518
			],
			"min":[
				-2,
				-1,
				-0.19999998807907104
			],
			"type":"VEC3"
		},
		{
			"bufferView":1,
			"componentType":5126,
			"count":274,
			"type":"VEC2"
		},
		{
			"bufferView":2,
			"componentType":5126,
			"count":274,
			"type":"VEC3"
		},
		{
			"bufferView":3,
			"componentType":5123,
			"count":1098,
			"type":"SCALAR"
		},
		{
			"bufferView":4,
			"componentType":5126,
			"count":4,
			"max":[
				1.857313871383667,
				0.8889406323432922,
				0.13149775564670563
			],
			"min":[
				-1.857313871383667,
				-0.8889406323432922,
				0.13149775564670563
			],
			"type":"VEC3"
		},
		{
			"bufferView":5,
			"componentType":5126,
			"count":4,
			"type":"VEC2"
		},
		{
			"bufferView":6,
			"componentType":5126,
			"count":4,
			"type":"VEC3"
		},
		{
			"bufferView":7,
			"componentType":5123,
			"count":6,
			"type":"SCALAR"
		},
		{
			"bufferView":8,
			"componentType":5126,
			"count":238,
			"max":[
				1.8244091272354126,
				0.672510027885437,
				0.09403195977210999
			],
			"min":[
				-1.8244091272354126,
				-0.6725100874900818,
				-0.05098816007375717
			],
			"type":"VEC3"
		},
		{
			"bufferView":9,
			"componentType":5126,
			"count":238,
			"type":"VEC2"
		},
		{
			"bufferView":10,
			"componentType":5126,
			"count":238,
			"type":"VEC3"
		},
		{
			"bufferView":11,
			"componentType":5123,
			"count":672,
			"type":"SCALAR"
		}
	],
	"bufferViews":[
		{
			"buffer":0,
			"byteLength":3288,
			"byteOffset":0,
			"target":34962
		},
		{
			"buffer":0,
			"byteLength":2192,
			"byteOffset":3288,
			"target":34962
		},
		{
			"buffer":0,
			"byteLength":3288,
			"byteOffset":5480,
			"target":34962
		},
		{
			"buffer":0,
			"byteLength":2196,
			"byteOffset":8768,
			"target":34963
		},
		{
			"buffer":0,
			"byteLength":48,
			"byteOffset":10964,
			"target":34962
		},
		{
			"buffer":0,
			"byteLength":32,
			"byteOffset":11012,
			"target":34962
		},
		{
			"buffer":0,
			"byteLength":48,
			"byteOffset":11044,
			"target":34962
		},
		{
			"buffer":0,
			"byteLength":12,
			"byteOffset":11092,
			"target":34963
		},
		{
			"buffer":0,
			"byteLength":2856,
			"byteOffset":11104,
			"target":34962
		},
		{
			"buffer":0,
			"byteLength":1904,
			"byteOffset":13960,
			"target":34962
		},
		{
			"buffer":0,
			"byteLength":2856,
			"byteOffset":15864,
			"target":34962
		},
		{
			"buffer":0,
			"byteLength":1344,
			"byteOffset":18720,
			"target":34963
		}
	],
	"buffers":[
		{
			"byteLength":20064,
			"uri":"data:application/octet-stream;base64,"
		}
	]
}
